<svg width="68" height="30" viewBox="0 0 68 30" fill="none" xmlns="http://www.w3.org/2000/svg">
<path d="M60.869 10.0207H29.6983C27.6583 4.27705 22.1842 0.145752 15.75 0.145752C7.58271 0.145752 0.9375 6.79016 0.9375 14.9582C0.9375 23.1263 7.58271 29.7707 15.75 29.7707C21.5511 29.7707 26.5701 26.4108 28.9996 21.5416H41.4019L46.1979 26.3376L51.9583 20.5772L54.5685 23.1874H60.869L67.4523 16.6041L60.869 10.0207ZM15.75 26.4791C9.39731 26.4791 4.22917 21.3101 4.22917 14.9582C4.22917 8.60636 9.39731 3.43742 15.75 3.43742C22.1027 3.43742 27.2708 8.60636 27.2708 14.9582C27.2708 21.3101 22.1027 26.4791 15.75 26.4791ZM59.506 19.8957H55.9315L51.9583 15.9226L46.1979 21.683L42.7648 18.2499H30.1811C30.423 17.1894 30.5625 16.0909 30.5625 14.9582C30.5625 14.4015 30.5257 13.8534 30.4654 13.3124H59.506L62.7977 16.6041L59.506 19.8957Z" fill="#9FA2B4"/>
</svg>
