<svg width="19" height="16" viewBox="0 0 19 16" fill="none" xmlns="http://www.w3.org/2000/svg">
<path d="M3.03478 8.88879H13.3331C13.824 8.88879 14.222 8.49081 14.222 7.99991C14.222 7.509 13.824 7.11102 13.3331 7.11102H3.03478L4.18405 5.96175C4.53119 5.61461 4.53119 5.05183 4.18405 4.70469C3.83697 4.35755 3.27412 4.35755 2.92698 4.70469L0.260444 7.37129C0.239644 7.39209 0.21997 7.41389 0.201362 7.43665C0.193244 7.44655 0.186192 7.45703 0.178548 7.46717C0.16877 7.4802 0.158696 7.49295 0.149629 7.50652C0.141333 7.5189 0.134163 7.53176 0.126577 7.54444C0.119289 7.55665 0.111644 7.56856 0.104948 7.58112C0.0979553 7.59416 0.0920886 7.60755 0.0858072 7.62083C0.0796442 7.6338 0.073185 7.6466 0.0676739 7.65988C0.0623406 7.67286 0.0579554 7.68607 0.0532739 7.69923C0.0481184 7.71345 0.0426665 7.72749 0.0382814 7.74201C0.034311 7.75517 0.0314073 7.7685 0.0280888 7.78183C0.0243555 7.79659 0.0202073 7.81129 0.0172444 7.82634C0.0142222 7.84168 0.0123851 7.85721 0.0101926 7.87268C0.00829627 7.88589 0.00574813 7.89893 0.00444443 7.91232C0.0016 7.941 0.000118518 7.96986 5.92591e-05 7.99866C5.92591e-05 7.99908 0 7.99955 0 7.99997C0 8.00038 5.92591e-05 8.00085 5.92591e-05 8.00127C0.000118518 8.03013 0.0016 8.05893 0.00444443 8.08767C0.00574813 8.10088 0.00823701 8.11374 0.010074 8.12684C0.0123259 8.14248 0.0141629 8.15813 0.0172444 8.17365C0.0202073 8.18859 0.0242962 8.20305 0.0280295 8.21768C0.0314073 8.23113 0.0343703 8.2447 0.0383999 8.25804C0.0427258 8.27232 0.0481184 8.28613 0.0530961 8.30011C0.0578961 8.3135 0.0622813 8.32696 0.0677331 8.34011C0.0731257 8.35315 0.0794664 8.36565 0.0855109 8.37839C0.0919108 8.39196 0.0979553 8.40565 0.105066 8.41899C0.111585 8.43113 0.118992 8.44269 0.126044 8.45448C0.133807 8.46758 0.141214 8.48079 0.149748 8.49353C0.1584 8.50651 0.168059 8.51866 0.177362 8.53116C0.185422 8.54189 0.192888 8.55297 0.201481 8.5634C0.219199 8.58497 0.237984 8.60565 0.257599 8.6255C0.258547 8.62645 0.259318 8.62752 0.260266 8.62847L2.92692 11.2952C3.10055 11.4688 3.32799 11.5556 3.55549 11.5556C3.78292 11.5555 4.01048 11.4688 4.18399 11.2952C4.53113 10.9481 4.53113 10.3853 4.18405 10.0382L3.03478 8.88879Z" fill="#9FA2B4"/>
<path d="M18.0739 0H6.81467C6.32376 0 5.92578 0.397984 5.92578 0.888886V4.44443C5.92578 4.93533 6.32376 5.33331 6.81467 5.33331C7.30557 5.33331 7.70355 4.93533 7.70355 4.44443V1.77777H17.185V14.2222H7.70355V11.5555C7.70355 11.0646 7.30557 10.6666 6.81467 10.6666C6.32376 10.6666 5.92578 11.0646 5.92578 11.5555V15.1111C5.92578 15.602 6.32376 16 6.81467 16H18.0739C18.5648 16 18.9628 15.602 18.9628 15.1111V0.888886C18.9628 0.397984 18.5648 0 18.0739 0Z" fill="#9FA2B4"/>
</svg>
