<svg width="17" height="19" viewBox="0 0 17 19" fill="none" xmlns="http://www.w3.org/2000/svg">
<path d="M7.00002 19C8.10377 19 8.99908 18.1047 8.99908 17H5.00096C5.00096 18.1047 5.89627 19 7.00002 19ZM13.731 14.3216C13.1272 13.6728 11.9975 12.6969 11.9975 9.5C11.9975 7.07188 10.295 5.12812 7.9994 4.65125V4C7.9994 3.44781 7.5519 3 7.00002 3C6.44815 3 6.00065 3.44781 6.00065 4V4.65125C3.70502 5.12812 2.00252 7.07188 2.00252 9.5C2.00252 12.6969 0.872834 13.6728 0.269084 14.3216C0.0815841 14.5231 -0.00154089 14.7641 2.16059e-05 15C0.00345911 15.5125 0.405647 16 1.00315 16H12.9969C13.5944 16 13.9969 15.5125 14 15C14.0016 14.7641 13.9185 14.5228 13.731 14.3216Z" fill="#9FA2B4"/>
<circle cx="12" cy="5" r="3.75" fill="#3751FF" stroke="#F7F8FC" stroke-width="1.5"/>
</svg>
