<svg width="22" height="22" viewBox="0 0 22 22" fill="none" xmlns="http://www.w3.org/2000/svg">
<path d="M5.49981 10.4497H10.4498V5.49971C10.4498 5.19609 10.6962 4.94971 10.9998 4.94971C11.3034 4.94971 11.5498 5.19609 11.5498 5.49971V10.4497H16.4998C16.8034 10.4497 17.0498 10.6961 17.0498 10.9997C17.0498 11.3033 16.8034 11.5497 16.4998 11.5497H11.5498V16.4997C11.5498 16.8033 11.3034 17.0497 10.9998 17.0497C10.6962 17.0497 10.4498 16.8033 10.4498 16.4997V11.5497H5.49981C5.19619 11.5497 4.94981 11.3033 4.94981 10.9997C4.94981 10.6961 5.19619 10.4497 5.49981 10.4497Z" fill="#528DC2"/>
<path d="M21.465 10.92C21.465 16.7438 16.7438 21.465 10.92 21.465C5.09616 21.465 0.375 16.7438 0.375 10.92C0.375 5.09616 5.09616 0.375 10.92 0.375C16.7438 0.375 21.465 5.09616 21.465 10.92Z" stroke="#528DC2" stroke-width="0.75" stroke-linecap="square"/>
</svg>
