<svg width="187" height="67" viewBox="0 0 187 67" fill="none" xmlns="http://www.w3.org/2000/svg">
<path d="M53 40.2292V66.5626H132V40.2292H53ZM128.708 63.2709H56.2917V43.5209H128.708V63.2709Z" fill="#9FA2B4"/>
<path d="M74.3371 51.5298L72.6913 48.6785L69.4583 50.545V46.8125H66.1666V50.5447L62.9344 48.6785L61.2886 51.5298L64.5206 53.3958L61.2886 55.2619L62.9344 58.1131L66.1666 56.2469V59.9792H69.4583V56.2466L72.6913 58.1131L74.3371 55.2619L71.1051 53.3958L74.3371 51.5298Z" fill="#9FA2B4"/>
<path d="M90.7956 51.5298L89.1498 48.6785L85.9168 50.545V46.8125H82.6251V50.5447L79.3929 48.6785L77.7471 51.5298L80.9791 53.3958L77.7471 55.2619L79.3929 58.1131L82.6251 56.2469V59.9792H85.9168V56.2466L89.1498 58.1131L90.7956 55.2619L87.5636 53.3958L90.7956 51.5298Z" fill="#9FA2B4"/>
<path d="M107.254 51.5298L105.608 48.6785L102.375 50.545V46.8125H99.0831V50.5447L95.8509 48.6785L94.2051 51.5298L97.4371 53.3958L94.2051 55.2619L95.8509 58.1131L99.0831 56.2469V59.9792H102.375V56.2466L105.608 58.1131L107.254 55.2619L104.022 53.3958L107.254 51.5298Z" fill="#9FA2B4"/>
<path d="M123.713 51.5298L122.067 48.6785L118.834 50.545V46.8125H115.542V50.5447L112.31 48.6785L110.664 51.5298L113.896 53.3958L110.664 55.2619L112.31 58.1131L115.542 56.2469V59.9792H118.834V56.2466L122.067 58.1131L123.713 55.2619L120.481 53.3958L123.713 51.5298Z" fill="#9FA2B4"/>

</svg>
