<svg width="14" height="16" viewBox="0 0 14 16" fill="none" xmlns="http://www.w3.org/2000/svg">
<path d="M9.226 0H0.638672V16H13.3604V4.1344L9.226 0ZM11.2297 3.76928H9.59162V2.13115L11.2297 3.76928ZM1.88681 14.7519V1.24813H8.34349V4.39335C8.34349 4.738 8.62282 5.01742 8.96756 5.01742H12.1123V14.7519H1.88681Z" fill="#9FA2B4"/>
<path d="M10.5774 12.3984H3.4209V13.2305H10.5774V12.3984Z" fill="#9FA2B4"/>
<path d="M7.66938 4.58496H3.4209V5.41705H7.66938V4.58496Z" fill="#9FA2B4"/>
<path d="M9.08856 7.2337H9.5497L7.76745 9.01587L6.37386 7.62229L3.29297 10.7034L3.88126 11.2919L6.37386 8.79911L7.76745 10.1926L10.1381 7.82199V8.28213H10.9702V6.40161H9.08856V7.2337Z" fill="#9FA2B4"/>
<path d="M7.66938 2.76953H3.4209V3.60162H7.66938V2.76953Z" fill="#9FA2B4"/>
</svg>
