<svg width="16" height="19" viewBox="0 0 16 19" fill="none" xmlns="http://www.w3.org/2000/svg">
<path d="M14.25 11.25C14.25 12.4861 13.8834 13.6945 13.1967 14.7223C12.5099 15.7501 11.5338 16.5512 10.3918 17.0242C9.24974 17.4973 7.99307 17.6211 6.78069 17.3799C5.56831 17.1388 4.45466 16.5435 3.58059 15.6694C2.70651 14.7953 2.11125 13.6817 1.8701 12.4693C1.62894 11.2569 1.75271 10.0003 2.22576 8.85823C2.6988 7.71619 3.49988 6.74007 4.52769 6.05331C5.5555 5.36656 6.76387 5 8 5H11.8638L9.62357 7.24087L10.5 8.125L14.25 4.375L10.5 0.625L9.62357 1.50875L11.8657 3.75H8C6.51664 3.75 5.0666 4.18987 3.83323 5.01398C2.59986 5.83809 1.63856 7.00943 1.07091 8.37987C0.50325 9.75032 0.354725 11.2583 0.644114 12.7132C0.933503 14.168 1.64781 15.5044 2.6967 16.5533C3.7456 17.6022 5.08197 18.3165 6.53683 18.6059C7.99168 18.8953 9.49968 18.7468 10.8701 18.1791C12.2406 17.6114 13.4119 16.6501 14.236 15.4168C15.0601 14.1834 15.5 12.7334 15.5 11.25H14.25Z" fill="#9FA2B4"/>
</svg>
