<svg width="656" height="313" viewBox="0 0 656 313" fill="none" xmlns="http://www.w3.org/2000/svg">
<rect x="1" width="655" height="326" rx="5" fill="#002564"/>
<path opacity="0.8" d="M227.755 35.4451C227.755 35.5363 227.739 35.6137 227.707 35.6776C227.68 35.7414 227.641 35.7938 227.591 35.8348C227.546 35.8758 227.493 35.9054 227.434 35.9236C227.375 35.9419 227.315 35.951 227.256 35.951H226.88C226.762 35.951 226.657 35.9396 226.566 35.9168C226.479 35.8895 226.395 35.8439 226.313 35.7801C226.235 35.7117 226.156 35.6206 226.074 35.5067C225.996 35.3927 225.909 35.2469 225.814 35.0692L223.025 30.0379C222.879 29.7781 222.731 29.507 222.58 29.2244C222.435 28.9373 222.298 28.6593 222.17 28.3904H222.157C222.166 28.7186 222.172 29.0535 222.177 29.3953C222.182 29.7371 222.184 30.0766 222.184 30.4139V35.7527C222.184 35.7846 222.175 35.8165 222.157 35.8484C222.138 35.8758 222.106 35.8986 222.061 35.9168C222.02 35.9305 221.963 35.9419 221.89 35.951C221.822 35.9647 221.733 35.9715 221.623 35.9715C221.514 35.9715 221.423 35.9647 221.35 35.951C221.282 35.9419 221.227 35.9305 221.186 35.9168C221.145 35.8986 221.115 35.8758 221.097 35.8484C221.079 35.8165 221.07 35.7846 221.07 35.7527V27.5906C221.07 27.4083 221.12 27.2785 221.22 27.201C221.32 27.1235 221.43 27.0848 221.548 27.0848H222.109C222.241 27.0848 222.35 27.0962 222.437 27.119C222.528 27.1417 222.608 27.1805 222.676 27.2352C222.749 27.2853 222.817 27.3582 222.881 27.4539C222.949 27.5451 223.022 27.6613 223.1 27.8026L225.246 31.6854C225.379 31.9223 225.506 32.1548 225.629 32.3826C225.752 32.6059 225.871 32.827 225.985 33.0457C226.099 33.2645 226.21 33.4809 226.32 33.6951C226.434 33.9048 226.545 34.1167 226.655 34.3309H226.661C226.652 33.9708 226.645 33.5971 226.641 33.2098C226.641 32.8179 226.641 32.4419 226.641 32.0818V27.283C226.641 27.2511 226.65 27.2215 226.668 27.1942C226.686 27.1668 226.716 27.144 226.757 27.1258C226.803 27.103 226.86 27.0871 226.928 27.0779C227.001 27.0688 227.094 27.0643 227.208 27.0643C227.309 27.0643 227.395 27.0688 227.468 27.0779C227.541 27.0871 227.598 27.103 227.639 27.1258C227.68 27.144 227.71 27.1668 227.728 27.1942C227.746 27.2215 227.755 27.2511 227.755 27.283V35.4451ZM234.858 33.449C234.858 33.8637 234.78 34.2329 234.625 34.5565C234.475 34.88 234.263 35.1557 233.99 35.3836C233.721 35.6069 233.402 35.7755 233.032 35.8895C232.668 36.0034 232.274 36.0604 231.85 36.0604C231.554 36.0604 231.278 36.0353 231.023 35.9852C230.772 35.935 230.546 35.8735 230.346 35.8006C230.15 35.7277 229.984 35.6525 229.847 35.575C229.715 35.4975 229.621 35.4315 229.567 35.3768C229.517 35.3221 229.478 35.2537 229.45 35.1717C229.428 35.0851 229.416 34.9712 229.416 34.8299C229.416 34.7296 229.421 34.6476 229.43 34.5838C229.439 34.5154 229.453 34.4608 229.471 34.4197C229.489 34.3787 229.512 34.3514 229.539 34.3377C229.567 34.3195 229.599 34.3104 229.635 34.3104C229.699 34.3104 229.788 34.3491 229.902 34.4266C230.02 34.504 230.171 34.5884 230.353 34.6795C230.535 34.7707 230.754 34.8572 231.009 34.9393C231.269 35.0167 231.567 35.0555 231.905 35.0555C232.16 35.0555 232.392 35.0213 232.602 34.9529C232.816 34.8846 232.998 34.7889 233.149 34.6658C233.304 34.5382 233.422 34.3833 233.504 34.201C233.586 34.0187 233.627 33.8113 233.627 33.5789C233.627 33.3283 233.57 33.1141 233.456 32.9363C233.342 32.7586 233.192 32.6037 233.005 32.4715C232.818 32.3348 232.604 32.2117 232.363 32.1024C232.126 31.9884 231.882 31.8745 231.631 31.7606C231.38 31.6421 231.137 31.5122 230.9 31.3709C230.663 31.2296 230.451 31.0633 230.264 30.8719C230.077 30.6805 229.924 30.4572 229.806 30.202C229.692 29.9422 229.635 29.6323 229.635 29.2723C229.635 28.9031 229.701 28.575 229.833 28.2879C229.97 27.9962 230.157 27.7524 230.394 27.5565C230.635 27.3605 230.92 27.2124 231.248 27.1121C231.581 27.0073 231.939 26.9549 232.322 26.9549C232.518 26.9549 232.713 26.9731 232.909 27.0096C233.11 27.0415 233.297 27.0871 233.47 27.1463C233.648 27.201 233.805 27.2648 233.942 27.3377C234.078 27.4061 234.167 27.463 234.208 27.5086C234.254 27.5496 234.283 27.5838 234.297 27.6111C234.311 27.6339 234.322 27.6658 234.331 27.7068C234.34 27.7433 234.347 27.7889 234.352 27.8436C234.356 27.8983 234.359 27.9689 234.359 28.0555C234.359 28.1375 234.354 28.2104 234.345 28.2742C234.34 28.338 234.331 28.3927 234.318 28.4383C234.304 28.4793 234.283 28.5112 234.256 28.534C234.233 28.5522 234.206 28.5613 234.174 28.5613C234.124 28.5613 234.044 28.5294 233.935 28.4656C233.83 28.4018 233.7 28.3312 233.545 28.2537C233.39 28.1717 233.206 28.0988 232.991 28.035C232.782 27.9666 232.545 27.9324 232.281 27.9324C232.034 27.9324 231.82 27.9666 231.638 28.035C231.456 28.0988 231.305 28.1854 231.187 28.2947C231.068 28.4041 230.979 28.534 230.92 28.6844C230.861 28.8348 230.831 28.9943 230.831 29.1629C230.831 29.409 230.888 29.6209 231.002 29.7986C231.116 29.9764 231.267 30.1336 231.453 30.2703C231.645 30.407 231.861 30.5324 232.103 30.6463C232.344 30.7602 232.59 30.8764 232.841 30.9949C233.092 31.1089 233.338 31.2365 233.579 31.3777C233.821 31.5145 234.035 31.6785 234.222 31.8699C234.413 32.0568 234.566 32.2801 234.68 32.5399C234.798 32.7951 234.858 33.0981 234.858 33.449ZM241.468 35.4451C241.468 35.5272 241.463 35.6001 241.454 35.6639C241.445 35.7231 241.429 35.7733 241.407 35.8143C241.384 35.8553 241.356 35.8849 241.324 35.9031C241.297 35.9214 241.265 35.9305 241.229 35.9305H236.984C236.879 35.9305 236.779 35.8963 236.683 35.8279C236.592 35.755 236.546 35.6297 236.546 35.452V27.5633C236.546 27.3856 236.592 27.2625 236.683 27.1942C236.779 27.1212 236.879 27.0848 236.984 27.0848H241.181C241.217 27.0848 241.249 27.0939 241.277 27.1121C241.309 27.1304 241.334 27.16 241.352 27.201C241.37 27.242 241.384 27.2944 241.393 27.3582C241.407 27.4175 241.413 27.4927 241.413 27.5838C241.413 27.6658 241.407 27.7387 241.393 27.8026C241.384 27.8618 241.37 27.9119 241.352 27.9529C241.334 27.9894 241.309 28.0167 241.277 28.035C241.249 28.0532 241.217 28.0623 241.181 28.0623H237.722V30.8377H240.689C240.725 30.8377 240.757 30.8491 240.784 30.8719C240.816 30.8901 240.841 30.9175 240.86 30.9539C240.882 30.9904 240.898 31.0405 240.907 31.1043C240.917 31.1681 240.921 31.2433 240.921 31.3299C240.921 31.4119 240.917 31.4826 240.907 31.5418C240.898 31.6011 240.882 31.6489 240.86 31.6854C240.841 31.7218 240.816 31.7492 240.784 31.7674C240.757 31.7811 240.725 31.7879 240.689 31.7879H237.722V34.9529H241.229C241.265 34.9529 241.297 34.9621 241.324 34.9803C241.356 34.9985 241.384 35.0281 241.407 35.0692C241.429 35.1056 241.445 35.1557 241.454 35.2195C241.463 35.2788 241.468 35.354 241.468 35.4451ZM253.178 35.5135C253.214 35.6137 253.233 35.6958 253.233 35.7596C253.237 35.8188 253.221 35.8644 253.185 35.8963C253.148 35.9282 253.087 35.9487 253 35.9578C252.918 35.9669 252.807 35.9715 252.665 35.9715C252.524 35.9715 252.41 35.9669 252.324 35.9578C252.241 35.9533 252.178 35.9442 252.132 35.9305C252.091 35.9123 252.059 35.8895 252.036 35.8621C252.018 35.8348 252 35.8006 251.982 35.7596L251.223 33.6063H247.545L246.821 35.7322C246.807 35.7733 246.789 35.8097 246.766 35.8416C246.743 35.869 246.709 35.894 246.663 35.9168C246.622 35.935 246.561 35.9487 246.479 35.9578C246.401 35.9669 246.299 35.9715 246.171 35.9715C246.039 35.9715 245.93 35.9647 245.843 35.951C245.761 35.9419 245.702 35.9214 245.665 35.8895C245.633 35.8576 245.617 35.812 245.617 35.7527C245.622 35.6889 245.643 35.6069 245.679 35.5067L248.646 27.2899C248.664 27.2397 248.687 27.1987 248.714 27.1668C248.746 27.1349 248.789 27.1098 248.844 27.0916C248.903 27.0734 248.976 27.062 249.063 27.0574C249.154 27.0483 249.268 27.0438 249.405 27.0438C249.55 27.0438 249.671 27.0483 249.767 27.0574C249.863 27.062 249.94 27.0734 249.999 27.0916C250.059 27.1098 250.104 27.1372 250.136 27.1736C250.168 27.2055 250.193 27.2466 250.211 27.2967L253.178 35.5135ZM249.37 28.2606H249.364L247.839 32.6697H250.915L249.37 28.2606ZM259.248 35.4178C259.248 35.5089 259.244 35.5864 259.235 35.6502C259.226 35.7095 259.21 35.7619 259.187 35.8074C259.169 35.8484 259.143 35.8804 259.112 35.9031C259.084 35.9214 259.05 35.9305 259.009 35.9305H255.099C254.994 35.9305 254.894 35.8963 254.798 35.8279C254.707 35.755 254.661 35.6297 254.661 35.452V27.2625C254.661 27.2261 254.671 27.1942 254.689 27.1668C254.707 27.1395 254.739 27.119 254.784 27.1053C254.83 27.0871 254.892 27.0734 254.969 27.0643C255.046 27.0506 255.14 27.0438 255.249 27.0438C255.363 27.0438 255.457 27.0506 255.53 27.0643C255.607 27.0734 255.669 27.0871 255.714 27.1053C255.76 27.119 255.792 27.1395 255.81 27.1668C255.828 27.1942 255.837 27.2261 255.837 27.2625V34.9119H259.009C259.05 34.9119 259.084 34.9233 259.112 34.9461C259.143 34.9643 259.169 34.994 259.187 35.035C259.21 35.0714 259.226 35.1216 259.235 35.1854C259.244 35.2492 259.248 35.3266 259.248 35.4178ZM265.141 35.4178C265.141 35.5089 265.136 35.5864 265.127 35.6502C265.118 35.7095 265.102 35.7619 265.079 35.8074C265.061 35.8484 265.036 35.8804 265.004 35.9031C264.977 35.9214 264.943 35.9305 264.902 35.9305H260.991C260.887 35.9305 260.786 35.8963 260.691 35.8279C260.6 35.755 260.554 35.6297 260.554 35.452V27.2625C260.554 27.2261 260.563 27.1942 260.581 27.1668C260.6 27.1395 260.631 27.119 260.677 27.1053C260.723 27.0871 260.784 27.0734 260.862 27.0643C260.939 27.0506 261.032 27.0438 261.142 27.0438C261.256 27.0438 261.349 27.0506 261.422 27.0643C261.5 27.0734 261.561 27.0871 261.607 27.1053C261.652 27.119 261.684 27.1395 261.702 27.1668C261.721 27.1942 261.73 27.2261 261.73 27.2625V34.9119H264.902C264.943 34.9119 264.977 34.9233 265.004 34.9461C265.036 34.9643 265.061 34.994 265.079 35.035C265.102 35.0714 265.118 35.1216 265.127 35.1854C265.136 35.2492 265.141 35.3266 265.141 35.4178ZM274.369 33.449C274.369 33.8637 274.292 34.2329 274.137 34.5565C273.987 34.88 273.775 35.1557 273.501 35.3836C273.232 35.6069 272.913 35.7755 272.544 35.8895C272.18 36.0034 271.785 36.0604 271.362 36.0604C271.065 36.0604 270.79 36.0353 270.534 35.9852C270.284 35.935 270.058 35.8735 269.858 35.8006C269.662 35.7277 269.495 35.6525 269.359 35.575C269.226 35.4975 269.133 35.4315 269.078 35.3768C269.028 35.3221 268.99 35.2537 268.962 35.1717C268.939 35.0851 268.928 34.9712 268.928 34.8299C268.928 34.7296 268.933 34.6476 268.942 34.5838C268.951 34.5154 268.964 34.4608 268.983 34.4197C269.001 34.3787 269.024 34.3514 269.051 34.3377C269.078 34.3195 269.11 34.3104 269.147 34.3104C269.211 34.3104 269.299 34.3491 269.413 34.4266C269.532 34.504 269.682 34.5884 269.865 34.6795C270.047 34.7707 270.266 34.8572 270.521 34.9393C270.781 35.0167 271.079 35.0555 271.416 35.0555C271.671 35.0555 271.904 35.0213 272.114 34.9529C272.328 34.8846 272.51 34.7889 272.66 34.6658C272.815 34.5382 272.934 34.3833 273.016 34.201C273.098 34.0187 273.139 33.8113 273.139 33.5789C273.139 33.3283 273.082 33.1141 272.968 32.9363C272.854 32.7586 272.704 32.6037 272.517 32.4715C272.33 32.3348 272.116 32.2117 271.874 32.1024C271.637 31.9884 271.393 31.8745 271.143 31.7606C270.892 31.6421 270.648 31.5122 270.411 31.3709C270.174 31.2296 269.962 31.0633 269.776 30.8719C269.589 30.6805 269.436 30.4572 269.318 30.202C269.204 29.9422 269.147 29.6323 269.147 29.2723C269.147 28.9031 269.213 28.575 269.345 28.2879C269.482 27.9962 269.669 27.7524 269.906 27.5565C270.147 27.3605 270.432 27.2124 270.76 27.1121C271.093 27.0073 271.45 26.9549 271.833 26.9549C272.029 26.9549 272.225 26.9731 272.421 27.0096C272.622 27.0415 272.809 27.0871 272.982 27.1463C273.159 27.201 273.317 27.2648 273.453 27.3377C273.59 27.4061 273.679 27.463 273.72 27.5086C273.766 27.5496 273.795 27.5838 273.809 27.6111C273.823 27.6339 273.834 27.6658 273.843 27.7068C273.852 27.7433 273.859 27.7889 273.864 27.8436C273.868 27.8983 273.87 27.9689 273.87 28.0555C273.87 28.1375 273.866 28.2104 273.857 28.2742C273.852 28.338 273.843 28.3927 273.829 28.4383C273.816 28.4793 273.795 28.5112 273.768 28.534C273.745 28.5522 273.718 28.5613 273.686 28.5613C273.636 28.5613 273.556 28.5294 273.447 28.4656C273.342 28.4018 273.212 28.3312 273.057 28.2537C272.902 28.1717 272.717 28.0988 272.503 28.035C272.294 27.9666 272.057 27.9324 271.792 27.9324C271.546 27.9324 271.332 27.9666 271.15 28.035C270.967 28.0988 270.817 28.1854 270.699 28.2947C270.58 28.4041 270.491 28.534 270.432 28.6844C270.373 28.8348 270.343 28.9943 270.343 29.1629C270.343 29.409 270.4 29.6209 270.514 29.7986C270.628 29.9764 270.778 30.1336 270.965 30.2703C271.157 30.407 271.373 30.5324 271.615 30.6463C271.856 30.7602 272.102 30.8764 272.353 30.9949C272.603 31.1089 272.85 31.2365 273.091 31.3777C273.333 31.5145 273.547 31.6785 273.734 31.8699C273.925 32.0568 274.078 32.2801 274.192 32.5399C274.31 32.7951 274.369 33.0981 274.369 33.449ZM282.429 35.7527C282.429 35.7892 282.42 35.8211 282.402 35.8484C282.383 35.8758 282.351 35.8986 282.306 35.9168C282.26 35.9305 282.199 35.9419 282.121 35.951C282.048 35.9647 281.957 35.9715 281.848 35.9715C281.729 35.9715 281.634 35.9647 281.561 35.951C281.488 35.9419 281.429 35.9305 281.383 35.9168C281.337 35.8986 281.306 35.8758 281.287 35.8484C281.269 35.8211 281.26 35.7892 281.26 35.7527V31.8289H277.234V35.7527C277.234 35.7892 277.225 35.8211 277.206 35.8484C277.188 35.8758 277.156 35.8986 277.111 35.9168C277.065 35.9305 277.004 35.9419 276.926 35.951C276.853 35.9647 276.76 35.9715 276.646 35.9715C276.536 35.9715 276.443 35.9647 276.365 35.951C276.288 35.9419 276.226 35.9305 276.181 35.9168C276.135 35.8986 276.103 35.8758 276.085 35.8484C276.067 35.8211 276.058 35.7892 276.058 35.7527V27.2625C276.058 27.2261 276.067 27.1942 276.085 27.1668C276.103 27.1395 276.135 27.119 276.181 27.1053C276.226 27.0871 276.288 27.0734 276.365 27.0643C276.443 27.0506 276.536 27.0438 276.646 27.0438C276.76 27.0438 276.853 27.0506 276.926 27.0643C277.004 27.0734 277.065 27.0871 277.111 27.1053C277.156 27.119 277.188 27.1395 277.206 27.1668C277.225 27.1942 277.234 27.2261 277.234 27.2625V30.8035H281.26V27.2625C281.26 27.2261 281.269 27.1942 281.287 27.1668C281.306 27.1395 281.337 27.119 281.383 27.1053C281.429 27.0871 281.488 27.0734 281.561 27.0643C281.634 27.0506 281.729 27.0438 281.848 27.0438C281.957 27.0438 282.048 27.0506 282.121 27.0643C282.199 27.0734 282.26 27.0871 282.306 27.1053C282.351 27.119 282.383 27.1395 282.402 27.1668C282.42 27.1942 282.429 27.2261 282.429 27.2625V35.7527ZM291.405 35.5135C291.441 35.6137 291.459 35.6958 291.459 35.7596C291.464 35.8188 291.448 35.8644 291.411 35.8963C291.375 35.9282 291.313 35.9487 291.227 35.9578C291.145 35.9669 291.033 35.9715 290.892 35.9715C290.751 35.9715 290.637 35.9669 290.55 35.9578C290.468 35.9533 290.404 35.9442 290.359 35.9305C290.318 35.9123 290.286 35.8895 290.263 35.8621C290.245 35.8348 290.226 35.8006 290.208 35.7596L289.449 33.6063H285.772L285.047 35.7322C285.033 35.7733 285.015 35.8097 284.992 35.8416C284.97 35.869 284.935 35.894 284.89 35.9168C284.849 35.935 284.787 35.9487 284.705 35.9578C284.628 35.9669 284.525 35.9715 284.398 35.9715C284.266 35.9715 284.156 35.9647 284.07 35.951C283.988 35.9419 283.928 35.9214 283.892 35.8895C283.86 35.8576 283.844 35.812 283.844 35.7527C283.849 35.6889 283.869 35.6069 283.906 35.5067L286.872 27.2899C286.891 27.2397 286.913 27.1987 286.941 27.1668C286.973 27.1349 287.016 27.1098 287.071 27.0916C287.13 27.0734 287.203 27.062 287.289 27.0574C287.38 27.0483 287.494 27.0438 287.631 27.0438C287.777 27.0438 287.898 27.0483 287.993 27.0574C288.089 27.062 288.167 27.0734 288.226 27.0916C288.285 27.1098 288.331 27.1372 288.363 27.1736C288.394 27.2055 288.42 27.2466 288.438 27.2967L291.405 35.5135ZM287.597 28.2606H287.59L286.066 32.6697H289.142L287.597 28.2606ZM298.787 35.7527C298.787 35.7892 298.781 35.8211 298.767 35.8484C298.753 35.8758 298.724 35.8986 298.678 35.9168C298.632 35.935 298.569 35.9487 298.487 35.9578C298.405 35.9669 298.295 35.9715 298.158 35.9715C298.04 35.9715 297.942 35.9669 297.865 35.9578C297.792 35.9487 297.732 35.935 297.687 35.9168C297.641 35.894 297.605 35.8644 297.577 35.8279C297.555 35.7915 297.534 35.7459 297.516 35.6912L296.702 33.6063C296.607 33.3693 296.506 33.1528 296.402 32.9568C296.301 32.7563 296.181 32.5854 296.039 32.4442C295.898 32.2983 295.732 32.1867 295.54 32.1092C295.349 32.0272 295.119 31.9861 294.85 31.9861H294.064V35.7527C294.064 35.7892 294.052 35.8211 294.03 35.8484C294.011 35.8758 293.979 35.8986 293.934 35.9168C293.893 35.9305 293.834 35.9419 293.756 35.951C293.683 35.9647 293.59 35.9715 293.476 35.9715C293.362 35.9715 293.266 35.9647 293.189 35.951C293.116 35.9419 293.057 35.9305 293.011 35.9168C292.965 35.8986 292.934 35.8758 292.915 35.8484C292.897 35.8211 292.888 35.7892 292.888 35.7527V27.5633C292.888 27.3856 292.934 27.2625 293.025 27.1942C293.12 27.1212 293.221 27.0848 293.325 27.0848H295.205C295.429 27.0848 295.613 27.0916 295.759 27.1053C295.909 27.1144 296.044 27.1258 296.162 27.1395C296.504 27.1987 296.805 27.2921 297.065 27.4197C297.329 27.5473 297.55 27.7091 297.728 27.9051C297.906 28.1011 298.038 28.3266 298.124 28.5818C298.215 28.8325 298.261 29.1105 298.261 29.4158C298.261 29.7121 298.22 29.9787 298.138 30.2156C298.06 30.4481 297.947 30.6554 297.796 30.8377C297.646 31.0154 297.466 31.1704 297.256 31.3026C297.046 31.4347 296.812 31.5464 296.552 31.6375C296.698 31.7013 296.83 31.7833 296.949 31.8836C297.067 31.9793 297.176 32.0955 297.277 32.2322C297.381 32.369 297.479 32.5262 297.571 32.7039C297.662 32.8817 297.753 33.0822 297.844 33.3055L298.637 35.2537C298.701 35.4178 298.742 35.534 298.76 35.6024C298.778 35.6662 298.787 35.7163 298.787 35.7527ZM297.017 29.5389C297.017 29.1925 296.939 28.9009 296.784 28.6639C296.629 28.4223 296.37 28.2492 296.005 28.1443C295.891 28.1124 295.761 28.0897 295.615 28.076C295.474 28.0623 295.287 28.0555 295.055 28.0555H294.064V31.0359H295.212C295.522 31.0359 295.789 30.9995 296.012 30.9266C296.24 30.8491 296.429 30.7443 296.579 30.6121C296.73 30.4754 296.839 30.3159 296.907 30.1336C296.98 29.9513 297.017 29.7531 297.017 29.5389ZM305.411 35.4451C305.411 35.5272 305.407 35.6001 305.398 35.6639C305.389 35.7231 305.373 35.7733 305.35 35.8143C305.327 35.8553 305.3 35.8849 305.268 35.9031C305.24 35.9214 305.209 35.9305 305.172 35.9305H300.927C300.822 35.9305 300.722 35.8963 300.626 35.8279C300.535 35.755 300.49 35.6297 300.49 35.452V27.5633C300.49 27.3856 300.535 27.2625 300.626 27.1942C300.722 27.1212 300.822 27.0848 300.927 27.0848H305.124C305.161 27.0848 305.193 27.0939 305.22 27.1121C305.252 27.1304 305.277 27.16 305.295 27.201C305.313 27.242 305.327 27.2944 305.336 27.3582C305.35 27.4175 305.357 27.4927 305.357 27.5838C305.357 27.6658 305.35 27.7387 305.336 27.8026C305.327 27.8618 305.313 27.9119 305.295 27.9529C305.277 27.9894 305.252 28.0167 305.22 28.035C305.193 28.0532 305.161 28.0623 305.124 28.0623H301.665V30.8377H304.632C304.669 30.8377 304.7 30.8491 304.728 30.8719C304.76 30.8901 304.785 30.9175 304.803 30.9539C304.826 30.9904 304.842 31.0405 304.851 31.1043C304.86 31.1681 304.865 31.2433 304.865 31.3299C304.865 31.4119 304.86 31.4826 304.851 31.5418C304.842 31.6011 304.826 31.6489 304.803 31.6854C304.785 31.7218 304.76 31.7492 304.728 31.7674C304.7 31.7811 304.669 31.7879 304.632 31.7879H301.665V34.9529H305.172C305.209 34.9529 305.24 34.9621 305.268 34.9803C305.3 34.9985 305.327 35.0281 305.35 35.0692C305.373 35.1056 305.389 35.1557 305.398 35.2195C305.407 35.2788 305.411 35.354 305.411 35.4451ZM311.673 35.7527C311.673 35.7892 311.664 35.8211 311.646 35.8484C311.628 35.8758 311.596 35.8986 311.55 35.9168C311.504 35.9305 311.443 35.9419 311.365 35.951C311.293 35.9647 311.199 35.9715 311.085 35.9715C310.976 35.9715 310.882 35.9647 310.805 35.951C310.727 35.9419 310.666 35.9305 310.62 35.9168C310.575 35.8986 310.543 35.8758 310.525 35.8484C310.506 35.8211 310.497 35.7892 310.497 35.7527V27.2625C310.497 27.2261 310.506 27.1942 310.525 27.1668C310.547 27.1395 310.582 27.119 310.627 27.1053C310.677 27.0871 310.739 27.0734 310.812 27.0643C310.889 27.0506 310.98 27.0438 311.085 27.0438C311.199 27.0438 311.293 27.0506 311.365 27.0643C311.443 27.0734 311.504 27.0871 311.55 27.1053C311.596 27.119 311.628 27.1395 311.646 27.1668C311.664 27.1942 311.673 27.2261 311.673 27.2625V35.7527ZM320.71 35.4451C320.71 35.5363 320.694 35.6137 320.662 35.6776C320.635 35.7414 320.596 35.7938 320.546 35.8348C320.501 35.8758 320.448 35.9054 320.389 35.9236C320.33 35.9419 320.27 35.951 320.211 35.951H319.835C319.717 35.951 319.612 35.9396 319.521 35.9168C319.434 35.8895 319.35 35.8439 319.268 35.7801C319.19 35.7117 319.111 35.6206 319.029 35.5067C318.951 35.3927 318.865 35.2469 318.769 35.0692L315.98 30.0379C315.834 29.7781 315.686 29.507 315.535 29.2244C315.39 28.9373 315.253 28.6593 315.125 28.3904H315.112C315.121 28.7186 315.128 29.0535 315.132 29.3953C315.137 29.7371 315.139 30.0766 315.139 30.4139V35.7527C315.139 35.7846 315.13 35.8165 315.112 35.8484C315.093 35.8758 315.061 35.8986 315.016 35.9168C314.975 35.9305 314.918 35.9419 314.845 35.951C314.777 35.9647 314.688 35.9715 314.578 35.9715C314.469 35.9715 314.378 35.9647 314.305 35.951C314.237 35.9419 314.182 35.9305 314.141 35.9168C314.1 35.8986 314.07 35.8758 314.052 35.8484C314.034 35.8165 314.025 35.7846 314.025 35.7527V27.5906C314.025 27.4083 314.075 27.2785 314.175 27.201C314.275 27.1235 314.385 27.0848 314.503 27.0848H315.064C315.196 27.0848 315.305 27.0962 315.392 27.119C315.483 27.1417 315.563 27.1805 315.631 27.2352C315.704 27.2853 315.772 27.3582 315.836 27.4539C315.905 27.5451 315.977 27.6613 316.055 27.8026L318.201 31.6854C318.334 31.9223 318.461 32.1548 318.584 32.3826C318.707 32.6059 318.826 32.827 318.94 33.0457C319.054 33.2645 319.165 33.4809 319.275 33.6951C319.389 33.9048 319.5 34.1167 319.61 34.3309H319.616C319.607 33.9708 319.601 33.5971 319.596 33.2098C319.596 32.8179 319.596 32.4419 319.596 32.0818V27.283C319.596 27.2511 319.605 27.2215 319.623 27.1942C319.642 27.1668 319.671 27.144 319.712 27.1258C319.758 27.103 319.815 27.0871 319.883 27.0779C319.956 27.0688 320.049 27.0643 320.163 27.0643C320.264 27.0643 320.35 27.0688 320.423 27.0779C320.496 27.0871 320.553 27.103 320.594 27.1258C320.635 27.144 320.665 27.1668 320.683 27.1942C320.701 27.2215 320.71 27.2511 320.71 27.283V35.4451ZM329.864 31.3777C329.864 32.1434 329.766 32.8133 329.57 33.3875C329.374 33.9572 329.087 34.4311 328.708 34.8094C328.335 35.1831 327.874 35.4634 327.327 35.6502C326.781 35.8371 326.129 35.9305 325.372 35.9305H323.499C323.394 35.9305 323.294 35.8963 323.199 35.8279C323.107 35.755 323.062 35.6297 323.062 35.452V27.5633C323.062 27.3856 323.107 27.2625 323.199 27.1942C323.294 27.1212 323.394 27.0848 323.499 27.0848H325.502C326.268 27.0848 326.915 27.185 327.444 27.3856C327.972 27.5815 328.414 27.8664 328.77 28.2401C329.13 28.6092 329.401 29.0581 329.583 29.5867C329.77 30.1154 329.864 30.7124 329.864 31.3777ZM328.626 31.4256C328.626 30.9471 328.567 30.5027 328.449 30.0926C328.33 29.6779 328.143 29.3201 327.888 29.0193C327.637 28.7186 327.318 28.4839 326.931 28.3152C326.544 28.1466 326.045 28.0623 325.434 28.0623H324.238V34.9461H325.448C326.013 34.9461 326.489 34.8755 326.876 34.7342C327.264 34.5929 327.587 34.3764 327.847 34.0848C328.107 33.7931 328.3 33.4285 328.428 32.991C328.56 32.549 328.626 32.0272 328.626 31.4256ZM336.597 35.4451C336.597 35.5272 336.592 35.6001 336.583 35.6639C336.574 35.7231 336.558 35.7733 336.535 35.8143C336.513 35.8553 336.485 35.8849 336.453 35.9031C336.426 35.9214 336.394 35.9305 336.358 35.9305H332.113C332.008 35.9305 331.907 35.8963 331.812 35.8279C331.721 35.755 331.675 35.6297 331.675 35.452V27.5633C331.675 27.3856 331.721 27.2625 331.812 27.1942C331.907 27.1212 332.008 27.0848 332.113 27.0848H336.31C336.346 27.0848 336.378 27.0939 336.406 27.1121C336.437 27.1304 336.462 27.16 336.481 27.201C336.499 27.242 336.513 27.2944 336.522 27.3582C336.535 27.4175 336.542 27.4927 336.542 27.5838C336.542 27.6658 336.535 27.7387 336.522 27.8026C336.513 27.8618 336.499 27.9119 336.481 27.9529C336.462 27.9894 336.437 28.0167 336.406 28.035C336.378 28.0532 336.346 28.0623 336.31 28.0623H332.851V30.8377H335.818C335.854 30.8377 335.886 30.8491 335.913 30.8719C335.945 30.8901 335.97 30.9175 335.989 30.9539C336.011 30.9904 336.027 31.0405 336.036 31.1043C336.046 31.1681 336.05 31.2433 336.05 31.3299C336.05 31.4119 336.046 31.4826 336.036 31.5418C336.027 31.6011 336.011 31.6489 335.989 31.6854C335.97 31.7218 335.945 31.7492 335.913 31.7674C335.886 31.7811 335.854 31.7879 335.818 31.7879H332.851V34.9529H336.358C336.394 34.9529 336.426 34.9621 336.453 34.9803C336.485 34.9985 336.513 35.0281 336.535 35.0692C336.558 35.1056 336.574 35.1557 336.583 35.2195C336.592 35.2788 336.597 35.354 336.597 35.4451ZM344.144 35.5067C344.203 35.6069 344.237 35.6867 344.246 35.7459C344.26 35.8052 344.246 35.853 344.205 35.8895C344.164 35.9214 344.096 35.9419 344 35.951C343.909 35.9647 343.786 35.9715 343.631 35.9715C343.485 35.9715 343.371 35.9669 343.289 35.9578C343.207 35.9533 343.141 35.9419 343.091 35.9236C343.046 35.9054 343.009 35.8849 342.982 35.8621C342.959 35.8348 342.938 35.8006 342.92 35.7596L340.951 32.2391L338.962 35.7596C338.939 35.8006 338.914 35.8348 338.887 35.8621C338.86 35.8895 338.821 35.9123 338.771 35.9305C338.725 35.9442 338.661 35.9533 338.579 35.9578C338.497 35.9669 338.388 35.9715 338.251 35.9715C338.101 35.9715 337.982 35.9647 337.896 35.951C337.809 35.9419 337.748 35.9214 337.711 35.8895C337.679 35.853 337.668 35.8052 337.677 35.7459C337.691 35.6867 337.727 35.6069 337.786 35.5067L340.199 31.4393L337.896 27.5086C337.841 27.4083 337.805 27.3286 337.786 27.2693C337.773 27.2055 337.784 27.1577 337.821 27.1258C337.857 27.0893 337.921 27.0665 338.012 27.0574C338.103 27.0483 338.228 27.0438 338.388 27.0438C338.525 27.0438 338.636 27.0483 338.723 27.0574C338.81 27.062 338.878 27.0734 338.928 27.0916C338.978 27.1053 339.015 27.1281 339.037 27.16C339.06 27.1873 339.085 27.2192 339.113 27.2557L341.013 30.5643L342.9 27.2557C342.922 27.2192 342.945 27.1873 342.968 27.16C342.991 27.1281 343.023 27.1053 343.064 27.0916C343.109 27.0734 343.171 27.062 343.248 27.0574C343.326 27.0483 343.431 27.0438 343.563 27.0438C343.704 27.0438 343.818 27.0506 343.905 27.0643C343.996 27.0734 344.06 27.0939 344.096 27.1258C344.137 27.1577 344.153 27.2055 344.144 27.2693C344.135 27.3286 344.103 27.4083 344.048 27.5086L341.751 31.4119L344.144 35.5067ZM351.595 32.4783C351.595 32.6561 351.574 32.7791 351.533 32.8475C351.492 32.9158 351.433 32.95 351.356 32.95H348.498C348.416 32.95 348.355 32.9158 348.314 32.8475C348.273 32.7746 348.252 32.6515 348.252 32.4783C348.252 32.3052 348.273 32.1844 348.314 32.116C348.355 32.0477 348.416 32.0135 348.498 32.0135H351.356C351.392 32.0135 351.424 32.0203 351.451 32.034C351.483 32.0477 351.508 32.075 351.527 32.116C351.549 32.1525 351.565 32.2003 351.574 32.2596C351.588 32.3188 351.595 32.3917 351.595 32.4783ZM361.521 33.0867C361.521 33.5607 361.441 33.9822 361.282 34.3514C361.122 34.7205 360.896 35.0327 360.605 35.2879C360.313 35.5386 359.964 35.73 359.559 35.8621C359.158 35.9943 358.711 36.0604 358.219 36.0604C357.946 36.0604 357.686 36.0399 357.44 35.9988C357.194 35.9624 356.975 35.9168 356.783 35.8621C356.592 35.8029 356.435 35.7459 356.312 35.6912C356.189 35.6365 356.109 35.5932 356.073 35.5613C356.041 35.5294 356.018 35.4998 356.004 35.4725C355.99 35.4451 355.977 35.4132 355.963 35.3768C355.954 35.3358 355.947 35.2856 355.943 35.2264C355.938 35.1671 355.936 35.0965 355.936 35.0145C355.936 34.937 355.938 34.8686 355.943 34.8094C355.952 34.7456 355.965 34.6955 355.984 34.659C356.002 34.618 356.022 34.5884 356.045 34.5701C356.073 34.5519 356.102 34.5428 356.134 34.5428C356.18 34.5428 356.25 34.5724 356.346 34.6317C356.442 34.6863 356.569 34.7479 356.729 34.8162C356.893 34.88 357.093 34.9415 357.33 35.0008C357.572 35.06 357.857 35.0897 358.185 35.0897C358.49 35.0897 358.77 35.0532 359.026 34.9803C359.281 34.9074 359.5 34.7934 359.682 34.6385C359.869 34.4835 360.015 34.2899 360.119 34.0574C360.224 33.8205 360.277 33.5333 360.277 33.1961C360.277 32.9136 360.231 32.6652 360.14 32.451C360.053 32.2322 359.917 32.0522 359.73 31.9109C359.547 31.7651 359.315 31.658 359.032 31.5897C358.75 31.5167 358.413 31.4803 358.021 31.4803C357.743 31.4803 357.504 31.494 357.303 31.5213C357.102 31.5486 356.916 31.5623 356.742 31.5623C356.615 31.5623 356.524 31.5327 356.469 31.4734C356.414 31.4142 356.387 31.3003 356.387 31.1317V27.5291C356.387 27.3787 356.421 27.2671 356.49 27.1942C356.562 27.1212 356.665 27.0848 356.797 27.0848H360.714C360.751 27.0848 360.785 27.0962 360.817 27.119C360.853 27.1372 360.883 27.1668 360.906 27.2078C360.928 27.2488 360.944 27.3012 360.953 27.3651C360.967 27.4289 360.974 27.504 360.974 27.5906C360.974 27.7547 360.951 27.8823 360.906 27.9734C360.86 28.0646 360.796 28.1102 360.714 28.1102H357.412V30.5916C357.572 30.5688 357.734 30.5552 357.898 30.5506C358.066 30.546 358.26 30.5438 358.479 30.5438C358.985 30.5438 359.427 30.6053 359.805 30.7283C360.183 30.8468 360.498 31.0177 360.748 31.241C361.004 31.4598 361.195 31.7264 361.323 32.0408C361.455 32.3553 361.521 32.7039 361.521 33.0867ZM373.49 31.3777C373.49 32.1434 373.393 32.8133 373.197 33.3875C373.001 33.9572 372.713 34.4311 372.335 34.8094C371.962 35.1831 371.501 35.4634 370.954 35.6502C370.407 35.8371 369.756 35.9305 368.999 35.9305H367.126C367.021 35.9305 366.921 35.8963 366.825 35.8279C366.734 35.755 366.689 35.6297 366.689 35.452V27.5633C366.689 27.3856 366.734 27.2625 366.825 27.1942C366.921 27.1212 367.021 27.0848 367.126 27.0848H369.129C369.895 27.0848 370.542 27.185 371.071 27.3856C371.599 27.5815 372.041 27.8664 372.397 28.2401C372.757 28.6092 373.028 29.0581 373.21 29.5867C373.397 30.1154 373.49 30.7124 373.49 31.3777ZM372.253 31.4256C372.253 30.9471 372.194 30.5027 372.075 30.0926C371.957 29.6779 371.77 29.3201 371.515 29.0193C371.264 28.7186 370.945 28.4839 370.558 28.3152C370.171 28.1466 369.671 28.0623 369.061 28.0623H367.865V34.9461H369.074C369.64 34.9461 370.116 34.8755 370.503 34.7342C370.891 34.5929 371.214 34.3764 371.474 34.0848C371.734 33.7931 371.927 33.4285 372.055 32.991C372.187 32.549 372.253 32.0272 372.253 31.4256ZM381.721 35.5135C381.757 35.6137 381.776 35.6958 381.776 35.7596C381.78 35.8188 381.764 35.8644 381.728 35.8963C381.691 35.9282 381.63 35.9487 381.543 35.9578C381.461 35.9669 381.35 35.9715 381.208 35.9715C381.067 35.9715 380.953 35.9669 380.866 35.9578C380.784 35.9533 380.721 35.9442 380.675 35.9305C380.634 35.9123 380.602 35.8895 380.579 35.8621C380.561 35.8348 380.543 35.8006 380.525 35.7596L379.766 33.6063H376.088L375.364 35.7322C375.35 35.7733 375.332 35.8097 375.309 35.8416C375.286 35.869 375.252 35.894 375.206 35.9168C375.165 35.935 375.104 35.9487 375.022 35.9578C374.944 35.9669 374.842 35.9715 374.714 35.9715C374.582 35.9715 374.473 35.9647 374.386 35.951C374.304 35.9419 374.245 35.9214 374.208 35.8895C374.176 35.8576 374.16 35.812 374.16 35.7527C374.165 35.6889 374.185 35.6069 374.222 35.5067L377.189 27.2899C377.207 27.2397 377.23 27.1987 377.257 27.1668C377.289 27.1349 377.332 27.1098 377.387 27.0916C377.446 27.0734 377.519 27.062 377.606 27.0574C377.697 27.0483 377.811 27.0438 377.948 27.0438C378.093 27.0438 378.214 27.0483 378.31 27.0574C378.406 27.062 378.483 27.0734 378.542 27.0916C378.601 27.1098 378.647 27.1372 378.679 27.1736C378.711 27.2055 378.736 27.2466 378.754 27.2967L381.721 35.5135ZM377.913 28.2606H377.907L376.382 32.6697H379.458L377.913 28.2606ZM385.002 32.492V35.7527C385.002 35.7892 384.993 35.8211 384.975 35.8484C384.957 35.8758 384.925 35.8986 384.879 35.9168C384.834 35.9305 384.772 35.9419 384.695 35.951C384.617 35.9647 384.524 35.9715 384.414 35.9715C384.3 35.9715 384.205 35.9647 384.127 35.951C384.054 35.9419 383.993 35.9305 383.943 35.9168C383.897 35.8986 383.865 35.8758 383.847 35.8484C383.829 35.8211 383.82 35.7892 383.82 35.7527V32.492L381.318 27.5018C381.268 27.397 381.236 27.3149 381.222 27.2557C381.213 27.1964 381.224 27.1509 381.256 27.119C381.293 27.0871 381.354 27.0665 381.441 27.0574C381.532 27.0483 381.653 27.0438 381.803 27.0438C381.94 27.0438 382.049 27.0483 382.131 27.0574C382.218 27.0665 382.286 27.0802 382.336 27.0984C382.386 27.1121 382.423 27.1349 382.446 27.1668C382.473 27.1942 382.498 27.2306 382.521 27.2762L383.744 29.8192C383.858 30.0607 383.972 30.3136 384.086 30.5779C384.2 30.8423 384.316 31.1089 384.435 31.3777H384.449C384.553 31.118 384.66 30.8605 384.77 30.6053C384.884 30.3455 384.998 30.0903 385.112 29.8397L386.342 27.283C386.356 27.2374 386.374 27.1987 386.397 27.1668C386.424 27.1349 386.458 27.1121 386.499 27.0984C386.545 27.0802 386.606 27.0665 386.684 27.0574C386.761 27.0483 386.859 27.0438 386.978 27.0438C387.142 27.0438 387.269 27.0506 387.361 27.0643C387.456 27.0734 387.522 27.0939 387.559 27.1258C387.595 27.1577 387.607 27.2033 387.593 27.2625C387.584 27.3218 387.554 27.4015 387.504 27.5018L385.002 32.492ZM393.629 33.449C393.629 33.8637 393.552 34.2329 393.397 34.5565C393.246 34.88 393.034 35.1557 392.761 35.3836C392.492 35.6069 392.173 35.7755 391.804 35.8895C391.439 36.0034 391.045 36.0604 390.621 36.0604C390.325 36.0604 390.049 36.0353 389.794 35.9852C389.544 35.935 389.318 35.8735 389.117 35.8006C388.921 35.7277 388.755 35.6525 388.618 35.575C388.486 35.4975 388.393 35.4315 388.338 35.3768C388.288 35.3221 388.249 35.2537 388.222 35.1717C388.199 35.0851 388.188 34.9712 388.188 34.8299C388.188 34.7296 388.192 34.6476 388.201 34.5838C388.211 34.5154 388.224 34.4608 388.242 34.4197C388.261 34.3787 388.283 34.3514 388.311 34.3377C388.338 34.3195 388.37 34.3104 388.407 34.3104C388.47 34.3104 388.559 34.3491 388.673 34.4266C388.792 34.504 388.942 34.5884 389.124 34.6795C389.307 34.7707 389.525 34.8572 389.781 34.9393C390.04 35.0167 390.339 35.0555 390.676 35.0555C390.931 35.0555 391.164 35.0213 391.373 34.9529C391.587 34.8846 391.77 34.7889 391.92 34.6658C392.075 34.5382 392.194 34.3833 392.276 34.201C392.358 34.0187 392.399 33.8113 392.399 33.5789C392.399 33.3283 392.342 33.1141 392.228 32.9363C392.114 32.7586 391.963 32.6037 391.777 32.4715C391.59 32.3348 391.376 32.2117 391.134 32.1024C390.897 31.9884 390.653 31.8745 390.403 31.7606C390.152 31.6421 389.908 31.5122 389.671 31.3709C389.434 31.2296 389.222 31.0633 389.035 30.8719C388.849 30.6805 388.696 30.4572 388.577 30.202C388.463 29.9422 388.407 29.6323 388.407 29.2723C388.407 28.9031 388.473 28.575 388.605 28.2879C388.741 27.9962 388.928 27.7524 389.165 27.5565C389.407 27.3605 389.692 27.2124 390.02 27.1121C390.352 27.0073 390.71 26.9549 391.093 26.9549C391.289 26.9549 391.485 26.9731 391.681 27.0096C391.881 27.0415 392.068 27.0871 392.241 27.1463C392.419 27.201 392.576 27.2648 392.713 27.3377C392.85 27.4061 392.939 27.463 392.98 27.5086C393.025 27.5496 393.055 27.5838 393.069 27.6111C393.082 27.6339 393.094 27.6658 393.103 27.7068C393.112 27.7433 393.119 27.7889 393.123 27.8436C393.128 27.8983 393.13 27.9689 393.13 28.0555C393.13 28.1375 393.126 28.2104 393.116 28.2742C393.112 28.338 393.103 28.3927 393.089 28.4383C393.075 28.4793 393.055 28.5112 393.028 28.534C393.005 28.5522 392.977 28.5613 392.946 28.5613C392.895 28.5613 392.816 28.5294 392.706 28.4656C392.601 28.4018 392.472 28.3312 392.317 28.2537C392.162 28.1717 391.977 28.0988 391.763 28.035C391.553 27.9666 391.316 27.9324 391.052 27.9324C390.806 27.9324 390.592 27.9666 390.409 28.035C390.227 28.0988 390.077 28.1854 389.958 28.2947C389.84 28.4041 389.751 28.534 389.692 28.6844C389.632 28.8348 389.603 28.9943 389.603 29.1629C389.603 29.409 389.66 29.6209 389.774 29.7986C389.888 29.9764 390.038 30.1336 390.225 30.2703C390.416 30.407 390.633 30.5324 390.874 30.6463C391.116 30.7602 391.362 30.8764 391.613 30.9949C391.863 31.1089 392.109 31.2365 392.351 31.3777C392.592 31.5145 392.807 31.6785 392.993 31.8699C393.185 32.0568 393.337 32.2801 393.451 32.5399C393.57 32.7951 393.629 33.0981 393.629 33.449ZM404.396 34.6795C404.396 34.7524 404.393 34.8162 404.389 34.8709C404.384 34.9256 404.375 34.9734 404.362 35.0145C404.352 35.0555 404.339 35.0919 404.321 35.1238C404.302 35.1557 404.27 35.1945 404.225 35.2401C404.179 35.2856 404.084 35.3563 403.938 35.452C403.792 35.5431 403.61 35.6343 403.391 35.7254C403.177 35.812 402.928 35.8849 402.646 35.9442C402.368 36.008 402.062 36.0399 401.73 36.0399C401.156 36.0399 400.636 35.9442 400.171 35.7527C399.711 35.5613 399.317 35.2788 398.989 34.9051C398.665 34.5314 398.414 34.0711 398.237 33.5242C398.063 32.9728 397.977 32.3393 397.977 31.6238C397.977 30.8901 398.07 30.2361 398.257 29.6619C398.449 29.0877 398.715 28.6024 399.057 28.2059C399.399 27.8048 399.807 27.4995 400.281 27.2899C400.759 27.0802 401.288 26.9754 401.866 26.9754C402.122 26.9754 402.37 27.0005 402.612 27.0506C402.853 27.0962 403.076 27.1554 403.282 27.2283C403.487 27.3012 403.669 27.3856 403.828 27.4813C403.988 27.577 404.097 27.6567 404.157 27.7205C404.22 27.7798 404.261 27.8253 404.28 27.8572C404.298 27.8891 404.311 27.9279 404.321 27.9734C404.334 28.0145 404.343 28.0646 404.348 28.1238C404.357 28.1831 404.362 28.2537 404.362 28.3358C404.362 28.4269 404.357 28.5044 404.348 28.5682C404.339 28.632 404.325 28.6867 404.307 28.7322C404.289 28.7733 404.266 28.8052 404.239 28.8279C404.216 28.8462 404.186 28.8553 404.15 28.8553C404.086 28.8553 403.997 28.812 403.883 28.7254C403.769 28.6343 403.621 28.5363 403.439 28.4315C403.261 28.3221 403.042 28.2241 402.782 28.1375C402.527 28.0464 402.22 28.0008 401.86 28.0008C401.468 28.0008 401.11 28.0805 400.786 28.2401C400.467 28.395 400.194 28.6251 399.966 28.9305C399.738 29.2358 399.56 29.6095 399.433 30.0516C399.31 30.4891 399.248 30.9904 399.248 31.5555C399.248 32.116 399.308 32.6128 399.426 33.0457C399.549 33.4741 399.722 33.8341 399.946 34.1258C400.173 34.4129 400.451 34.6317 400.78 34.782C401.108 34.9279 401.479 35.0008 401.894 35.0008C402.245 35.0008 402.55 34.9575 402.81 34.8709C403.074 34.7843 403.297 34.6886 403.48 34.5838C403.667 34.4744 403.819 34.3764 403.938 34.2899C404.056 34.2033 404.15 34.16 404.218 34.16C404.25 34.16 404.277 34.1668 404.3 34.1805C404.323 34.1942 404.341 34.2215 404.355 34.2625C404.368 34.299 404.378 34.3514 404.382 34.4197C404.391 34.4881 404.396 34.5747 404.396 34.6795ZM412.325 35.7527C412.325 35.7892 412.316 35.8211 412.298 35.8484C412.28 35.8758 412.248 35.8986 412.202 35.9168C412.157 35.9305 412.095 35.9419 412.018 35.951C411.945 35.9647 411.854 35.9715 411.744 35.9715C411.626 35.9715 411.53 35.9647 411.457 35.951C411.384 35.9419 411.325 35.9305 411.28 35.9168C411.234 35.8986 411.202 35.8758 411.184 35.8484C411.166 35.8211 411.157 35.7892 411.157 35.7527V31.8289H407.13V35.7527C407.13 35.7892 407.121 35.8211 407.103 35.8484C407.085 35.8758 407.053 35.8986 407.007 35.9168C406.962 35.9305 406.9 35.9419 406.823 35.951C406.75 35.9647 406.656 35.9715 406.542 35.9715C406.433 35.9715 406.339 35.9647 406.262 35.951C406.185 35.9419 406.123 35.9305 406.077 35.9168C406.032 35.8986 406 35.8758 405.982 35.8484C405.963 35.8211 405.954 35.7892 405.954 35.7527V27.2625C405.954 27.2261 405.963 27.1942 405.982 27.1668C406 27.1395 406.032 27.119 406.077 27.1053C406.123 27.0871 406.185 27.0734 406.262 27.0643C406.339 27.0506 406.433 27.0438 406.542 27.0438C406.656 27.0438 406.75 27.0506 406.823 27.0643C406.9 27.0734 406.962 27.0871 407.007 27.1053C407.053 27.119 407.085 27.1395 407.103 27.1668C407.121 27.1942 407.13 27.2261 407.13 27.2625V30.8035H411.157V27.2625C411.157 27.2261 411.166 27.1942 411.184 27.1668C411.202 27.1395 411.234 27.119 411.28 27.1053C411.325 27.0871 411.384 27.0734 411.457 27.0643C411.53 27.0506 411.626 27.0438 411.744 27.0438C411.854 27.0438 411.945 27.0506 412.018 27.0643C412.095 27.0734 412.157 27.0871 412.202 27.1053C412.248 27.119 412.28 27.1395 412.298 27.1668C412.316 27.1942 412.325 27.2261 412.325 27.2625V35.7527ZM421.301 35.5135C421.337 35.6137 421.356 35.6958 421.356 35.7596C421.36 35.8188 421.344 35.8644 421.308 35.8963C421.271 35.9282 421.21 35.9487 421.123 35.9578C421.041 35.9669 420.93 35.9715 420.788 35.9715C420.647 35.9715 420.533 35.9669 420.447 35.9578C420.365 35.9533 420.301 35.9442 420.255 35.9305C420.214 35.9123 420.182 35.8895 420.159 35.8621C420.141 35.8348 420.123 35.8006 420.105 35.7596L419.346 33.6063H415.668L414.944 35.7322C414.93 35.7733 414.912 35.8097 414.889 35.8416C414.866 35.869 414.832 35.894 414.786 35.9168C414.745 35.935 414.684 35.9487 414.602 35.9578C414.524 35.9669 414.422 35.9715 414.294 35.9715C414.162 35.9715 414.053 35.9647 413.966 35.951C413.884 35.9419 413.825 35.9214 413.788 35.8895C413.756 35.8576 413.74 35.812 413.74 35.7527C413.745 35.6889 413.766 35.6069 413.802 35.5067L416.769 27.2899C416.787 27.2397 416.81 27.1987 416.837 27.1668C416.869 27.1349 416.912 27.1098 416.967 27.0916C417.026 27.0734 417.099 27.062 417.186 27.0574C417.277 27.0483 417.391 27.0438 417.528 27.0438C417.673 27.0438 417.794 27.0483 417.89 27.0574C417.986 27.062 418.063 27.0734 418.122 27.0916C418.182 27.1098 418.227 27.1372 418.259 27.1736C418.291 27.2055 418.316 27.2466 418.334 27.2967L421.301 35.5135ZM417.493 28.2606H417.487L415.962 32.6697H419.038L417.493 28.2606ZM428.684 35.7527C428.684 35.7892 428.677 35.8211 428.663 35.8484C428.65 35.8758 428.62 35.8986 428.574 35.9168C428.529 35.935 428.465 35.9487 428.383 35.9578C428.301 35.9669 428.192 35.9715 428.055 35.9715C427.936 35.9715 427.838 35.9669 427.761 35.9578C427.688 35.9487 427.629 35.935 427.583 35.9168C427.538 35.894 427.501 35.8644 427.474 35.8279C427.451 35.7915 427.431 35.7459 427.412 35.6912L426.599 33.6063C426.503 33.3693 426.403 33.1528 426.298 32.9568C426.198 32.7563 426.077 32.5854 425.936 32.4442C425.795 32.2983 425.628 32.1867 425.437 32.1092C425.245 32.0272 425.015 31.9861 424.746 31.9861H423.96V35.7527C423.96 35.7892 423.949 35.8211 423.926 35.8484C423.908 35.8758 423.876 35.8986 423.83 35.9168C423.789 35.9305 423.73 35.9419 423.653 35.951C423.58 35.9647 423.486 35.9715 423.372 35.9715C423.258 35.9715 423.163 35.9647 423.085 35.951C423.012 35.9419 422.953 35.9305 422.907 35.9168C422.862 35.8986 422.83 35.8758 422.812 35.8484C422.794 35.8211 422.784 35.7892 422.784 35.7527V27.5633C422.784 27.3856 422.83 27.2625 422.921 27.1942C423.017 27.1212 423.117 27.0848 423.222 27.0848H425.102C425.325 27.0848 425.51 27.0916 425.656 27.1053C425.806 27.1144 425.94 27.1258 426.059 27.1395C426.401 27.1987 426.701 27.2921 426.961 27.4197C427.226 27.5473 427.447 27.7091 427.624 27.9051C427.802 28.1011 427.934 28.3266 428.021 28.5818C428.112 28.8325 428.157 29.1105 428.157 29.4158C428.157 29.7121 428.116 29.9787 428.034 30.2156C427.957 30.4481 427.843 30.6554 427.693 30.8377C427.542 31.0154 427.362 31.1704 427.153 31.3026C426.943 31.4347 426.708 31.5464 426.449 31.6375C426.594 31.7013 426.726 31.7833 426.845 31.8836C426.963 31.9793 427.073 32.0955 427.173 32.2322C427.278 32.369 427.376 32.5262 427.467 32.7039C427.558 32.8817 427.649 33.0822 427.74 33.3055L428.533 35.2537C428.597 35.4178 428.638 35.534 428.657 35.6024C428.675 35.6662 428.684 35.7163 428.684 35.7527ZM426.913 29.5389C426.913 29.1925 426.836 28.9009 426.681 28.6639C426.526 28.4223 426.266 28.2492 425.902 28.1443C425.788 28.1124 425.658 28.0897 425.512 28.076C425.371 28.0623 425.184 28.0555 424.951 28.0555H423.96V31.0359H425.109C425.419 31.0359 425.685 30.9995 425.908 30.9266C426.136 30.8491 426.325 30.7443 426.476 30.6121C426.626 30.4754 426.736 30.3159 426.804 30.1336C426.877 29.9513 426.913 29.7531 426.913 29.5389ZM435.793 27.5906C435.793 27.6772 435.789 27.7524 435.78 27.8162C435.77 27.88 435.754 27.9324 435.732 27.9734C435.713 28.0099 435.688 28.0373 435.657 28.0555C435.629 28.0737 435.597 28.0828 435.561 28.0828H433.073V35.7527C433.073 35.7892 433.063 35.8211 433.045 35.8484C433.027 35.8758 432.995 35.8986 432.949 35.9168C432.904 35.9305 432.842 35.9419 432.765 35.951C432.692 35.9647 432.599 35.9715 432.485 35.9715C432.375 35.9715 432.282 35.9647 432.204 35.951C432.127 35.9419 432.065 35.9305 432.02 35.9168C431.974 35.8986 431.942 35.8758 431.924 35.8484C431.906 35.8211 431.897 35.7892 431.897 35.7527V28.0828H429.408C429.372 28.0828 429.338 28.0737 429.306 28.0555C429.279 28.0373 429.256 28.0099 429.238 27.9734C429.219 27.9324 429.203 27.88 429.19 27.8162C429.181 27.7524 429.176 27.6772 429.176 27.5906C429.176 27.504 429.181 27.4289 429.19 27.3651C429.203 27.2967 429.219 27.242 429.238 27.201C429.256 27.16 429.279 27.1304 429.306 27.1121C429.338 27.0939 429.372 27.0848 429.408 27.0848H435.561C435.597 27.0848 435.629 27.0939 435.657 27.1121C435.688 27.1304 435.713 27.16 435.732 27.201C435.754 27.242 435.77 27.2967 435.78 27.3651C435.789 27.4289 435.793 27.504 435.793 27.5906Z" fill="white"/>
<line opacity="0.1" x1="656" y1="68.8464" x2="1" y2="68.8464" stroke="white" stroke-width="0.504"/>
<path opacity="0.5" d="M182.622 94.2827L180.187 99.8092H179.121L181.551 94.5337H178.401V93.7179H182.622V94.2827ZM183.601 99.8092V93.7179H185.4C185.938 93.7179 186.415 93.8378 186.831 94.0777C187.249 94.3175 187.573 94.6578 187.802 95.0985C188.03 95.5391 188.145 96.044 188.145 96.6129V96.9183C188.145 97.4957 188.029 98.0033 187.797 98.4412C187.569 98.8791 187.241 99.2165 186.814 99.4536C186.39 99.6907 185.904 99.8092 185.354 99.8092H183.601ZM184.66 94.5713V98.9641H185.35C185.905 98.9641 186.33 98.7912 186.626 98.4454C186.924 98.0967 187.076 97.5975 187.082 96.9476V96.6088C187.082 95.9477 186.938 95.4429 186.651 95.0943C186.364 94.7457 185.947 94.5713 185.4 94.5713H184.66Z" fill="white"/>
<path d="M239.521 99.931H238.509V95.0404L237.015 95.5508V94.6932L239.392 93.8188H239.521V99.931ZM243.174 93.8397L244.931 98.5086L246.684 93.8397H248.052V99.931H246.997V97.9229L247.102 95.237L245.303 99.931H244.546L242.751 95.2412L242.856 97.9229V99.931H241.801V93.8397H243.174Z" fill="#3FD4AA"/>
<path opacity="0.5" d="M295.632 96.421H296.251C296.563 96.4182 296.81 96.3373 296.991 96.1783C297.175 96.0194 297.267 95.7893 297.267 95.4881C297.267 95.198 297.191 94.9735 297.037 94.8145C296.887 94.6527 296.655 94.5718 296.343 94.5718C296.069 94.5718 295.845 94.6513 295.669 94.8103C295.494 94.9665 295.406 95.1715 295.406 95.4253H294.389C294.389 95.1129 294.471 94.8284 294.636 94.5718C294.803 94.3153 295.035 94.1158 295.33 93.9736C295.629 93.8286 295.962 93.756 296.33 93.756C296.938 93.756 297.415 93.9094 297.761 94.2162C298.11 94.5202 298.284 94.9442 298.284 95.4881C298.284 95.7614 298.196 96.0194 298.02 96.262C297.848 96.5019 297.623 96.6832 297.347 96.8059C297.682 96.9202 297.935 97.1001 298.108 97.3456C298.284 97.591 298.372 97.8839 298.372 98.2241C298.372 98.7708 298.184 99.2059 297.807 99.5294C297.433 99.8529 296.941 100.015 296.33 100.015C295.745 100.015 295.265 99.8585 294.891 99.5461C294.517 99.2338 294.331 98.8182 294.331 98.2994H295.347C295.347 98.5672 295.436 98.7847 295.615 98.9521C295.796 99.1194 296.039 99.2031 296.343 99.2031C296.658 99.2031 296.906 99.1194 297.087 98.9521C297.269 98.7847 297.359 98.5421 297.359 98.2241C297.359 97.9034 297.265 97.6565 297.075 97.4836C296.885 97.3107 296.604 97.2242 296.23 97.2242H295.632V96.421ZM300.861 93.8397L302.618 98.5086L304.371 93.8397H305.739V99.931H304.685V97.9229L304.789 95.237L302.991 99.931H302.233L300.439 95.2412L300.543 97.9229V99.931H299.489V93.8397H300.861Z" fill="white"/>
<path opacity="0.5" d="M356.619 93.8104V94.6513H356.493C355.924 94.6597 355.47 94.8159 355.129 95.1199C354.789 95.4239 354.587 95.8548 354.523 96.4126C354.849 96.0696 355.266 95.898 355.774 95.898C356.312 95.898 356.736 96.0877 357.046 96.467C357.358 96.8463 357.514 97.3358 357.514 97.9355C357.514 98.5546 357.331 99.0567 356.966 99.4415C356.603 99.8237 356.127 100.015 355.535 100.015C354.927 100.015 354.434 99.7902 354.054 99.3411C353.678 98.8921 353.489 98.3036 353.489 97.5757V97.2284C353.489 96.1602 353.749 95.3235 354.268 94.7183C354.789 94.113 355.538 93.8104 356.514 93.8104H356.619ZM355.527 96.718C355.304 96.718 355.099 96.7808 354.912 96.9063C354.728 97.0318 354.593 97.1991 354.506 97.4083V97.7179C354.506 98.1697 354.601 98.5295 354.791 98.7973C354.98 99.0622 355.226 99.1947 355.527 99.1947C355.828 99.1947 356.067 99.0818 356.242 98.8558C356.418 98.6299 356.506 98.3329 356.506 97.9647C356.506 97.5966 356.417 97.2968 356.238 97.0653C356.06 96.8338 355.823 96.718 355.527 96.718ZM359.861 93.8397L361.618 98.5086L363.371 93.8397H364.739V99.931H363.685V97.9229L363.789 95.237L361.991 99.931H361.233L359.439 95.2412L359.543 97.9229V99.931H358.489V93.8397H359.861Z" fill="white"/>
<path opacity="0.5" d="M415.209 99.931H414.196V95.0404L412.703 95.5508V94.6932L415.079 93.8188H415.209V99.931ZM419.476 96.7264L420.878 93.8397H422.049L420.007 97.6886V99.931H418.945V97.6886L416.899 93.8397H418.075L419.476 96.7264Z" fill="white"/>
<path opacity="0.5" d="M472.552 99.931H468.456V99.2324L470.485 97.0192C470.778 96.6929 470.986 96.421 471.108 96.2034C471.234 95.9831 471.297 95.7628 471.297 95.5424C471.297 95.2524 471.214 95.0181 471.05 94.8396C470.888 94.6611 470.669 94.5718 470.393 94.5718C470.064 94.5718 469.809 94.6723 469.627 94.8731C469.446 95.0739 469.355 95.3486 469.355 95.6972H468.339C468.339 95.3263 468.423 94.993 468.59 94.6974C468.76 94.3989 469.001 94.1674 469.314 94.0029C469.629 93.8383 469.991 93.756 470.401 93.756C470.993 93.756 471.458 93.9053 471.799 94.2037C472.142 94.4993 472.313 94.9093 472.313 95.4337C472.313 95.7377 472.227 96.057 472.054 96.3917C471.884 96.7236 471.603 97.1015 471.213 97.5255L469.724 99.1194H472.552V99.931ZM475.476 96.7264L476.878 93.8397H478.049L476.007 97.6886V99.931H474.945V97.6886L472.899 93.8397H474.075L475.476 96.7264Z" fill="white"/>
<rect x="239.324" y="108.902" width="8.384" height="1.41432" fill="#3FD4AA"/>
<path opacity="0.7" d="M1 146.081L75.5459 217.795C91.258 232.911 114.908 236.209 134.156 225.971L222.653 178.897C231.36 174.266 241.234 172.29 251.053 173.216L301.88 178.008C315.848 179.325 328.635 186.404 337.165 197.543L357.909 224.632C375.928 248.163 410.263 251.142 432.065 231.065L534.424 136.804C543.562 128.388 555.488 123.644 567.91 123.483L656 122.338V326H1L1 146.081Z" fill="url(#paint0_linear)"/>
<path d="M1 145.675L73.85 217.789C89.5713 233.351 113.603 236.843 133.103 226.399L221.814 178.884C230.398 174.286 240.13 172.274 249.834 173.09L301.539 177.438C315.399 178.604 328.162 185.446 336.805 196.344L357.941 222.996C375.947 245.7 409.342 248.582 430.971 229.299L536.603 135.119C545.836 126.887 557.774 122.338 570.143 122.338H655.214" stroke="#002564" stroke-width="1.512"/>
<path d="M331.25 180.704C331.25 182.267 330.779 183.642 330.067 184.604C329.355 185.565 328.451 186.06 327.542 186.06C326.634 186.06 325.73 185.565 325.017 184.604C324.305 183.642 323.834 182.267 323.834 180.704C323.834 179.14 324.305 177.765 325.017 176.803C325.73 175.842 326.634 175.347 327.542 175.347C328.451 175.347 329.355 175.842 330.067 176.803C330.779 177.765 331.25 179.14 331.25 180.704Z" fill="#01048A" stroke="white" stroke-width="2.016"/>
<g filter="url(#filter0_d)">
<path d="M296.008 165.768C296.008 166.882 296.91 167.784 298.024 167.784H361.039C362.152 167.784 363.055 166.882 363.055 165.768V135.251C363.055 134.137 362.152 133.235 361.039 133.235H298.024C296.91 133.235 296.008 134.137 296.008 135.251V165.768Z" fill="white"/>
<path d="M296.26 165.768C296.26 166.743 297.05 167.532 298.024 167.532H361.039C362.013 167.532 362.803 166.743 362.803 165.768V135.251C362.803 134.276 362.013 133.487 361.039 133.487H298.024C297.05 133.487 296.26 134.276 296.26 135.251V165.768Z" stroke="#D1D2DF" stroke-width="0.504"/>
</g>
<path opacity="0.402121" d="M303.15 152.776C303.44 151.596 304 151.056 304.81 151.056C305.54 151.056 305.95 151.566 305.75 152.506C305.61 153.186 305.24 153.666 304.4 154.266L303.5 154.906C302.38 155.706 301.69 156.466 301.44 157.636H305.36L305.48 157.096H302.24C302.5 156.356 302.99 155.896 303.86 155.286L304.76 154.656C305.83 153.906 306.22 153.336 306.4 152.476C306.69 151.126 305.94 150.556 304.98 150.556C303.65 150.556 302.82 151.406 302.51 152.776H303.15ZM308.405 154.206H308.875C309.735 154.206 310.175 154.706 309.985 155.626C309.725 156.816 308.965 157.256 308.245 157.256C307.335 157.256 307.055 156.576 307.225 155.746H306.585C306.355 157.066 306.915 157.756 308.135 157.756C309.465 157.756 310.355 156.886 310.625 155.606C310.815 154.736 310.445 154.046 309.635 153.926V153.906C310.445 153.716 310.955 153.086 311.125 152.306C311.355 151.216 310.775 150.556 309.685 150.556C308.435 150.556 307.625 151.336 307.375 152.516H308.015C308.235 151.516 308.865 151.056 309.575 151.056C310.345 151.056 310.635 151.566 310.465 152.386C310.285 153.226 309.695 153.706 308.845 153.706H308.515L308.405 154.206ZM314.272 154.066C313.732 156.626 314.302 157.756 315.762 157.756C317.222 157.756 318.292 156.626 318.832 154.066C319.382 151.506 318.802 150.376 317.342 150.376C315.882 150.376 314.822 151.506 314.272 154.066ZM314.912 154.066C315.402 151.756 316.202 150.916 317.222 150.916C318.242 150.916 318.682 151.756 318.192 154.066C317.702 156.376 316.902 157.216 315.882 157.216C314.862 157.216 314.422 156.376 314.912 154.066ZM322.108 155.876C321.818 156.806 321.328 157.256 320.718 157.256C320.158 157.256 319.648 156.986 320.068 154.986C320.468 153.106 321.098 152.706 321.748 152.706C322.388 152.706 322.638 153.076 322.528 153.906H323.128C323.308 152.816 322.858 152.206 321.858 152.206C320.688 152.206 319.828 153.136 319.438 154.976C319.008 156.976 319.498 157.756 320.618 157.756C321.598 157.756 322.378 157.006 322.708 155.876H322.108ZM323.631 156.766C323.471 157.476 323.741 157.696 324.551 157.696C324.751 157.696 324.901 157.676 324.981 157.636L325.091 157.136C324.951 157.176 324.821 157.196 324.701 157.196C324.311 157.196 324.161 157.056 324.251 156.636L325.061 152.826H326.001L326.111 152.326H325.171L325.481 150.856H324.881L324.571 152.326H323.841L323.731 152.826H324.461L323.631 156.766ZM325.913 157.636H326.203C326.073 158.176 325.943 158.456 325.643 158.616L325.563 159.016C326.233 158.786 326.463 158.226 326.593 157.636L326.813 156.616H326.133L325.913 157.636ZM331.636 152.776C331.926 151.596 332.486 151.056 333.296 151.056C334.026 151.056 334.436 151.566 334.236 152.506C334.096 153.186 333.726 153.666 332.886 154.266L331.986 154.906C330.866 155.706 330.176 156.466 329.926 157.636H333.846L333.966 157.096H330.726C330.986 156.356 331.476 155.896 332.346 155.286L333.246 154.656C334.316 153.906 334.706 153.336 334.886 152.476C335.176 151.126 334.426 150.556 333.466 150.556C332.136 150.556 331.306 151.406 330.996 152.776H331.636ZM336.081 154.156C336.561 151.886 337.121 151.056 338.091 151.056C339.061 151.056 339.261 151.886 338.781 154.156C338.301 156.426 337.741 157.256 336.771 157.256C335.801 157.256 335.601 156.426 336.081 154.156ZM335.441 154.156C335.001 156.246 335.051 157.756 336.661 157.756C338.271 157.756 338.981 156.246 339.421 154.156C339.871 152.066 339.811 150.556 338.201 150.556C336.591 150.556 335.891 152.066 335.441 154.156ZM341.246 152.776C341.536 151.596 342.096 151.056 342.906 151.056C343.636 151.056 344.046 151.566 343.846 152.506C343.706 153.186 343.336 153.666 342.496 154.266L341.596 154.906C340.476 155.706 339.786 156.466 339.536 157.636H343.456L343.576 157.096H340.336C340.596 156.356 341.086 155.896 341.956 155.286L342.856 154.656C343.926 153.906 344.316 153.336 344.496 152.476C344.786 151.126 344.036 150.556 343.076 150.556C341.746 150.556 340.916 151.406 340.606 152.776H341.246ZM345.69 154.156C346.17 151.886 346.73 151.056 347.7 151.056C348.67 151.056 348.87 151.886 348.39 154.156C347.91 156.426 347.35 157.256 346.38 157.256C345.41 157.256 345.21 156.426 345.69 154.156ZM345.05 154.156C344.61 156.246 344.66 157.756 346.27 157.756C347.88 157.756 348.59 156.246 349.03 154.156C349.48 152.066 349.42 150.556 347.81 150.556C346.2 150.556 345.5 152.066 345.05 154.156Z" fill="#25233A"/>
<path d="M321.833 141.775H322.888V142.556H321.833V143.294H322.888V144.075H321.833V146.487H320.598L319.079 144.075H317.424V146.487H316.193V144.075H315.163V143.294H316.193V142.556H315.163V141.775H316.193V139.378H317.424L318.933 141.775H320.607V139.378H321.833V141.775ZM319.885 143.294H320.607V142.556H319.421L319.885 143.294ZM317.424 143.294H318.586L318.122 142.556H317.424V143.294ZM320.607 144.441V144.075H320.378L320.607 144.441ZM317.424 141.775H317.634L317.424 141.443V141.775ZM326.794 146.487H325.612V140.779L323.869 141.375V140.374L326.643 139.353H326.794V146.487ZM330.637 142.39H331.359C331.724 142.387 332.012 142.293 332.224 142.107C332.438 141.921 332.546 141.653 332.546 141.301C332.546 140.963 332.456 140.701 332.277 140.515C332.102 140.326 331.831 140.232 331.467 140.232C331.148 140.232 330.886 140.325 330.681 140.51C330.476 140.693 330.373 140.932 330.373 141.228H329.187C329.187 140.864 329.283 140.531 329.475 140.232C329.67 139.933 329.94 139.7 330.285 139.534C330.633 139.364 331.022 139.28 331.452 139.28C332.162 139.28 332.718 139.459 333.122 139.817C333.529 140.172 333.732 140.667 333.732 141.301C333.732 141.62 333.63 141.921 333.425 142.205C333.223 142.485 332.961 142.696 332.639 142.839C333.029 142.973 333.326 143.183 333.527 143.469C333.732 143.756 333.835 144.098 333.835 144.495C333.835 145.133 333.615 145.641 333.176 146.018C332.74 146.396 332.165 146.585 331.452 146.585C330.769 146.585 330.209 146.402 329.772 146.038C329.336 145.673 329.118 145.188 329.118 144.583H330.305C330.305 144.895 330.409 145.149 330.617 145.344C330.829 145.54 331.112 145.637 331.467 145.637C331.835 145.637 332.124 145.54 332.336 145.344C332.548 145.149 332.653 144.866 332.653 144.495C332.653 144.12 332.543 143.832 332.321 143.63C332.1 143.429 331.771 143.328 331.335 143.328H330.637V142.39ZM335.764 145.237C335.985 145.237 336.156 145.3 336.276 145.427C336.397 145.551 336.457 145.707 336.457 145.896C336.457 146.082 336.397 146.236 336.276 146.36C336.156 146.48 335.985 146.541 335.764 146.541C335.552 146.541 335.384 146.48 335.261 146.36C335.137 146.239 335.075 146.085 335.075 145.896C335.075 145.707 335.135 145.551 335.256 145.427C335.376 145.3 335.546 145.237 335.764 145.237ZM339.113 142.39H339.836C340.201 142.387 340.489 142.293 340.7 142.107C340.915 141.921 341.022 141.653 341.022 141.301C341.022 140.963 340.933 140.701 340.754 140.515C340.578 140.326 340.308 140.232 339.943 140.232C339.624 140.232 339.362 140.325 339.157 140.51C338.952 140.693 338.85 140.932 338.85 141.228H337.663C337.663 140.864 337.759 140.531 337.951 140.232C338.146 139.933 338.417 139.7 338.762 139.534C339.11 139.364 339.499 139.28 339.929 139.28C340.638 139.28 341.195 139.459 341.599 139.817C342.006 140.172 342.209 140.667 342.209 141.301C342.209 141.62 342.106 141.921 341.901 142.205C341.7 142.485 341.438 142.696 341.115 142.839C341.506 142.973 341.802 143.183 342.004 143.469C342.209 143.756 342.312 144.098 342.312 144.495C342.312 145.133 342.092 145.641 341.652 146.018C341.216 146.396 340.642 146.585 339.929 146.585C339.245 146.585 338.685 146.402 338.249 146.038C337.813 145.673 337.595 145.188 337.595 144.583H338.781C338.781 144.895 338.885 145.149 339.094 145.344C339.305 145.54 339.589 145.637 339.943 145.637C340.311 145.637 340.601 145.54 340.812 145.344C341.024 145.149 341.13 144.866 341.13 144.495C341.13 144.12 341.019 143.832 340.798 143.63C340.576 143.429 340.248 143.328 339.812 143.328H339.113V142.39ZM347.902 141.253C347.902 141.601 347.813 141.912 347.634 142.185C347.455 142.455 347.211 142.669 346.901 142.825C347.272 142.997 347.557 143.233 347.756 143.533C347.958 143.832 348.059 144.171 348.059 144.548C348.059 145.173 347.847 145.67 347.424 146.038C347.001 146.402 346.438 146.585 345.734 146.585C345.028 146.585 344.462 146.401 344.035 146.033C343.612 145.665 343.4 145.17 343.4 144.548C343.4 144.168 343.501 143.826 343.703 143.523C343.905 143.22 344.188 142.988 344.553 142.825C344.247 142.669 344.004 142.455 343.825 142.185C343.649 141.912 343.562 141.601 343.562 141.253C343.562 140.647 343.757 140.167 344.147 139.812C344.538 139.457 345.065 139.28 345.729 139.28C346.397 139.28 346.926 139.457 347.316 139.812C347.707 140.167 347.902 140.647 347.902 141.253ZM346.872 144.49C346.872 144.138 346.766 143.855 346.555 143.64C346.346 143.422 346.07 143.313 345.725 143.313C345.38 143.313 345.103 143.42 344.895 143.635C344.689 143.85 344.587 144.135 344.587 144.49C344.587 144.838 344.688 145.116 344.89 145.325C345.095 145.533 345.376 145.637 345.734 145.637C346.092 145.637 346.371 145.536 346.569 145.335C346.771 145.133 346.872 144.851 346.872 144.49ZM346.721 141.296C346.721 140.987 346.631 140.733 346.452 140.535C346.273 140.333 346.032 140.232 345.729 140.232C345.427 140.232 345.188 140.328 345.012 140.52C344.836 140.709 344.748 140.968 344.748 141.296C344.748 141.622 344.836 141.881 345.012 142.073C345.191 142.265 345.432 142.361 345.734 142.361C346.037 142.361 346.276 142.265 346.452 142.073C346.631 141.881 346.721 141.622 346.721 141.296Z" fill="#33343E"/>
<defs>
<filter id="filter0_d" x="268.288" y="105.515" width="122.487" height="89.9897" filterUnits="userSpaceOnUse" color-interpolation-filters="sRGB">
<feFlood flood-opacity="0" result="BackgroundImageFix"/>
<feColorMatrix in="SourceAlpha" type="matrix" values="0 0 0 0 0 0 0 0 0 0 0 0 0 0 0 0 0 0 127 0" result="hardAlpha"/>
<feOffset/>
<feGaussianBlur stdDeviation="13.86"/>
<feColorMatrix type="matrix" values="0 0 0 0 0.00392157 0 0 0 0 0.0196078 0 0 0 0 0.541176 0 0 0 0.0489697 0"/>
<feBlend mode="normal" in2="BackgroundImageFix" result="effect1_dropShadow"/>
<feBlend mode="normal" in="SourceGraphic" in2="effect1_dropShadow" result="shape"/>
</filter>
<linearGradient id="paint0_linear" x1="47.1158" y1="128.715" x2="47.1158" y2="398.239" gradientUnits="userSpaceOnUse">
<stop stop-color="#528DC2"/>
<stop offset="1" stop-color="#030432" stop-opacity="0"/>
</linearGradient>
</defs>
</svg>
