<svg width="307" height="227" viewBox="0 0 307 227" fill="none" xmlns="http://www.w3.org/2000/svg">
<circle cx="153.833" cy="59.7339" r="35.7339" fill="#F1F1F1"/>
<rect x="140.292" y="59.5273" width="33.9838" height="47.9775" rx="7" transform="rotate(2.5 140.292 59.5273)" fill="#EEEEEE" stroke="#999999" stroke-width="2"/>
<rect x="118.455" y="55.6452" width="37.9838" height="51.9775" rx="9" transform="rotate(-7.5 118.455 55.6452)" fill="#FAFAFA" stroke="#999999" stroke-width="2"/>
<path d="M120.621 64.4377C120.045 60.0572 123.128 56.0386 127.509 55.4619L147.322 52.8535C151.702 52.2768 155.721 55.3604 156.297 59.7408L156.753 63.2058L121.078 67.9026L120.621 64.4377Z" fill="#EEEEEE"/>
<rect x="163.012" y="53.3083" width="1.49932" height="4.99775" rx="0.749662" transform="rotate(82.5 163.012 53.3083)" fill="#999999"/>
<rect x="149.319" y="45.0293" width="1.49932" height="4.99775" rx="0.749662" transform="rotate(-7.5 149.319 45.0293)" fill="#999999"/>
<rect x="158.104" y="46.3931" width="1.49932" height="4.99774" rx="0.749662" transform="rotate(37.5 158.104 46.3931)" fill="#999999"/>
<rect x="124.807" y="69.428" width="28.9869" height="1.9991" rx="0.999549" transform="rotate(-7.5 124.807 69.428)" fill="#DCDCDC"/>
<rect x="126.111" y="79.3381" width="28.9869" height="1.9991" rx="0.999549" transform="rotate(-7.5 126.111 79.3381)" fill="#DCDCDC"/>
<rect x="127.416" y="89.248" width="28.9869" height="1.9991" rx="0.999549" transform="rotate(-7.5 127.416 89.248)" fill="#DCDCDC"/>
<rect x="125.329" y="73.3921" width="10.4953" height="1.9991" rx="0.999549" transform="rotate(-7.5 125.329 73.3921)" fill="#EEEEEE"/>
<rect x="126.634" y="83.302" width="10.4953" height="1.9991" rx="0.999549" transform="rotate(-7.5 126.634 83.302)" fill="#EEEEEE"/>
<rect x="127.938" y="93.2122" width="10.4953" height="1.9991" rx="0.999549" transform="rotate(-7.5 127.938 93.2122)" fill="#EEEEEE"/>
<rect x="104" y="158" width="99" height="44" rx="5" fill="#528DC2"/>
<rect x="1" y="1" width="305" height="225" rx="5" fill="#75759E" fill-opacity="0.15" stroke="#528DC2"/>
<path d="M143.922 183.78C143.902 183.834 143.88 183.878 143.856 183.912C143.832 183.946 143.79 183.973 143.731 183.993C143.678 184.012 143.604 184.024 143.512 184.029C143.419 184.039 143.297 184.044 143.146 184.044C142.979 184.044 142.845 184.039 142.743 184.029C142.64 184.024 142.56 184.012 142.501 183.993C142.442 183.973 142.398 183.946 142.369 183.912C142.34 183.878 142.315 183.832 142.296 183.773L139.681 176.705C139.652 176.598 139.632 176.512 139.623 176.449C139.613 176.38 139.625 176.332 139.659 176.302C139.698 176.268 139.762 176.246 139.85 176.236C139.938 176.227 140.06 176.222 140.216 176.222C140.367 176.222 140.484 176.227 140.567 176.236C140.655 176.241 140.724 176.253 140.772 176.273C140.821 176.288 140.853 176.31 140.868 176.339C140.887 176.368 140.904 176.405 140.919 176.449L143.16 182.77H143.175L145.35 176.471C145.37 176.422 145.389 176.383 145.409 176.354C145.433 176.319 145.47 176.292 145.519 176.273C145.567 176.253 145.633 176.241 145.716 176.236C145.799 176.227 145.912 176.222 146.053 176.222C146.195 176.222 146.305 176.229 146.383 176.244C146.466 176.253 146.522 176.275 146.551 176.31C146.585 176.344 146.598 176.395 146.588 176.463C146.578 176.527 146.556 176.612 146.522 176.72L143.922 183.78ZM149.276 183.832C149.276 183.866 149.266 183.897 149.247 183.927C149.227 183.951 149.193 183.973 149.144 183.993C149.095 184.007 149.032 184.02 148.954 184.029C148.875 184.039 148.775 184.044 148.653 184.044C148.536 184.044 148.436 184.039 148.353 184.029C148.275 184.02 148.211 184.007 148.163 183.993C148.114 183.973 148.08 183.951 148.06 183.927C148.041 183.897 148.031 183.866 148.031 183.832V176.427C148.031 176.397 148.041 176.371 148.06 176.346C148.084 176.317 148.121 176.295 148.17 176.28C148.219 176.261 148.282 176.246 148.36 176.236C148.438 176.227 148.536 176.222 148.653 176.222C148.775 176.222 148.875 176.227 148.954 176.236C149.032 176.246 149.095 176.261 149.144 176.28C149.193 176.295 149.227 176.317 149.247 176.346C149.266 176.371 149.276 176.397 149.276 176.427V183.832ZM156.183 183.502C156.183 183.59 156.178 183.666 156.168 183.729C156.158 183.792 156.144 183.846 156.124 183.89C156.109 183.929 156.087 183.958 156.058 183.978C156.034 183.993 156.007 184 155.978 184H152.044C151.947 184 151.854 183.966 151.766 183.897C151.678 183.824 151.634 183.707 151.634 183.546V176.72C151.634 176.559 151.678 176.444 151.766 176.375C151.854 176.302 151.947 176.266 152.044 176.266H155.926C155.96 176.266 155.99 176.275 156.014 176.295C156.043 176.31 156.065 176.336 156.08 176.375C156.1 176.415 156.114 176.468 156.124 176.537C156.134 176.6 156.139 176.676 156.139 176.764C156.139 176.852 156.134 176.927 156.124 176.991C156.114 177.049 156.1 177.098 156.08 177.137C156.065 177.171 156.043 177.198 156.014 177.218C155.99 177.237 155.96 177.247 155.926 177.247H152.879V179.503H155.509C155.543 179.503 155.572 179.513 155.597 179.532C155.626 179.547 155.65 179.574 155.67 179.613C155.689 179.652 155.702 179.703 155.707 179.767C155.716 179.83 155.721 179.908 155.721 180.001C155.721 180.084 155.716 180.157 155.707 180.221C155.702 180.279 155.689 180.328 155.67 180.367C155.65 180.406 155.626 180.436 155.597 180.455C155.572 180.47 155.543 180.477 155.509 180.477H152.879V183.019H155.978C156.007 183.019 156.034 183.028 156.058 183.048C156.087 183.062 156.109 183.089 156.124 183.128C156.144 183.167 156.158 183.219 156.168 183.282C156.178 183.341 156.183 183.414 156.183 183.502ZM166.114 183.78C166.095 183.834 166.068 183.878 166.034 183.912C166.004 183.946 165.958 183.973 165.895 183.993C165.831 184.012 165.75 184.024 165.653 184.029C165.555 184.039 165.433 184.044 165.287 184.044C165.121 184.044 164.984 184.039 164.876 184.029C164.774 184.024 164.693 184.012 164.635 183.993C164.576 183.973 164.532 183.944 164.503 183.905C164.479 183.866 164.459 183.817 164.444 183.758L162.804 178.177H162.782L161.229 183.766C161.209 183.824 161.185 183.873 161.156 183.912C161.126 183.946 161.083 183.973 161.024 183.993C160.965 184.012 160.887 184.024 160.79 184.029C160.692 184.039 160.567 184.044 160.416 184.044C160.26 184.044 160.128 184.039 160.021 184.029C159.918 184.024 159.835 184.012 159.771 183.993C159.708 183.973 159.662 183.946 159.632 183.912C159.603 183.878 159.579 183.832 159.559 183.773L157.391 176.705C157.357 176.598 157.337 176.512 157.333 176.449C157.333 176.38 157.354 176.332 157.398 176.302C157.442 176.268 157.511 176.246 157.604 176.236C157.696 176.227 157.821 176.222 157.977 176.222C158.124 176.222 158.236 176.227 158.314 176.236C158.397 176.241 158.46 176.253 158.504 176.273C158.553 176.288 158.585 176.31 158.6 176.339C158.619 176.368 158.636 176.407 158.651 176.456L160.438 182.711H160.453L162.181 176.478C162.196 176.424 162.213 176.383 162.232 176.354C162.252 176.319 162.284 176.292 162.328 176.273C162.372 176.253 162.433 176.241 162.511 176.236C162.594 176.227 162.706 176.222 162.848 176.222C162.984 176.222 163.094 176.227 163.177 176.236C163.26 176.241 163.324 176.253 163.368 176.273C163.412 176.292 163.441 176.319 163.456 176.354C163.475 176.383 163.492 176.419 163.507 176.463L165.323 182.711H165.331L166.993 176.478C167.008 176.424 167.025 176.383 167.044 176.354C167.064 176.319 167.096 176.292 167.14 176.273C167.188 176.253 167.254 176.241 167.337 176.236C167.42 176.227 167.533 176.222 167.674 176.222C167.816 176.222 167.926 176.227 168.004 176.236C168.087 176.246 168.146 176.268 168.18 176.302C168.214 176.336 168.229 176.388 168.224 176.456C168.219 176.52 168.202 176.607 168.172 176.72L166.114 183.78Z" fill="white"/>
<path d="M102.822 136.81C102.822 136.849 102.812 136.883 102.792 136.912C102.773 136.941 102.739 136.966 102.69 136.985C102.641 137 102.575 137.012 102.492 137.022C102.414 137.037 102.314 137.044 102.192 137.044C102.075 137.044 101.975 137.037 101.892 137.022C101.809 137.012 101.743 137 101.694 136.985C101.645 136.966 101.611 136.941 101.591 136.912C101.572 136.883 101.562 136.849 101.562 136.81V127.713C101.562 127.674 101.572 127.64 101.591 127.61C101.616 127.581 101.652 127.559 101.701 127.544C101.755 127.525 101.821 127.51 101.899 127.5C101.982 127.486 102.08 127.479 102.192 127.479C102.314 127.479 102.414 127.486 102.492 127.5C102.575 127.51 102.641 127.525 102.69 127.544C102.739 127.559 102.773 127.581 102.792 127.61C102.812 127.64 102.822 127.674 102.822 127.713V136.81ZM110.878 136.817C110.878 136.856 110.869 136.89 110.849 136.919C110.83 136.944 110.798 136.966 110.754 136.985C110.71 137.005 110.649 137.02 110.571 137.029C110.493 137.039 110.395 137.044 110.278 137.044C110.156 137.044 110.056 137.039 109.978 137.029C109.899 137.02 109.838 137.005 109.794 136.985C109.75 136.966 109.719 136.944 109.699 136.919C109.68 136.89 109.67 136.856 109.67 136.817V132.957C109.67 132.581 109.641 132.278 109.582 132.049C109.523 131.819 109.438 131.622 109.326 131.456C109.213 131.29 109.067 131.163 108.886 131.075C108.71 130.987 108.505 130.943 108.271 130.943C107.968 130.943 107.666 131.05 107.363 131.265C107.06 131.48 106.743 131.795 106.411 132.21V136.817C106.411 136.856 106.401 136.89 106.381 136.919C106.362 136.944 106.33 136.966 106.286 136.985C106.242 137.005 106.181 137.02 106.103 137.029C106.025 137.039 105.925 137.044 105.803 137.044C105.686 137.044 105.588 137.039 105.51 137.029C105.432 137.02 105.368 137.005 105.319 136.985C105.275 136.966 105.244 136.944 105.224 136.919C105.209 136.89 105.202 136.856 105.202 136.817V130.225C105.202 130.186 105.209 130.154 105.224 130.13C105.239 130.101 105.268 130.076 105.312 130.057C105.356 130.032 105.412 130.018 105.48 130.013C105.549 130.003 105.639 129.998 105.751 129.998C105.859 129.998 105.947 130.003 106.015 130.013C106.088 130.018 106.145 130.032 106.184 130.057C106.223 130.076 106.25 130.101 106.264 130.13C106.284 130.154 106.293 130.186 106.293 130.225V131.097C106.665 130.682 107.033 130.379 107.399 130.188C107.771 129.993 108.144 129.896 108.52 129.896C108.959 129.896 109.328 129.971 109.626 130.123C109.929 130.269 110.173 130.467 110.358 130.716C110.544 130.965 110.676 131.258 110.754 131.595C110.837 131.927 110.878 132.327 110.878 132.796V136.817ZM118.73 136.817C118.73 136.856 118.72 136.89 118.701 136.919C118.686 136.949 118.657 136.973 118.613 136.993C118.574 137.007 118.52 137.02 118.452 137.029C118.383 137.039 118.3 137.044 118.203 137.044C118.1 137.044 118.015 137.039 117.946 137.029C117.878 137.02 117.822 137.007 117.778 136.993C117.734 136.973 117.702 136.949 117.683 136.919C117.663 136.89 117.653 136.856 117.653 136.817V135.945C117.307 136.321 116.945 136.614 116.569 136.824C116.198 137.034 115.791 137.139 115.346 137.139C114.863 137.139 114.45 137.046 114.108 136.861C113.767 136.67 113.488 136.417 113.273 136.099C113.063 135.777 112.91 135.401 112.812 134.971C112.714 134.537 112.666 134.08 112.666 133.602C112.666 133.035 112.727 132.525 112.849 132.071C112.971 131.612 113.151 131.221 113.391 130.899C113.63 130.577 113.925 130.33 114.277 130.159C114.633 129.983 115.043 129.896 115.507 129.896C115.893 129.896 116.245 129.981 116.562 130.152C116.884 130.318 117.202 130.564 117.514 130.892V127.061C117.514 127.027 117.521 126.995 117.536 126.966C117.556 126.932 117.59 126.907 117.639 126.893C117.688 126.873 117.749 126.858 117.822 126.849C117.9 126.834 117.998 126.827 118.115 126.827C118.237 126.827 118.337 126.834 118.415 126.849C118.493 126.858 118.554 126.873 118.598 126.893C118.642 126.907 118.674 126.932 118.693 126.966C118.718 126.995 118.73 127.027 118.73 127.061V136.817ZM117.514 132.181C117.187 131.775 116.87 131.468 116.562 131.258C116.259 131.043 115.942 130.936 115.61 130.936C115.302 130.936 115.041 131.009 114.826 131.155C114.611 131.302 114.436 131.495 114.299 131.734C114.167 131.973 114.069 132.244 114.006 132.547C113.947 132.85 113.918 133.157 113.918 133.47C113.918 133.802 113.942 134.126 113.991 134.444C114.045 134.761 114.135 135.044 114.262 135.293C114.389 135.538 114.558 135.735 114.768 135.887C114.978 136.033 115.241 136.106 115.559 136.106C115.72 136.106 115.874 136.084 116.02 136.041C116.171 135.997 116.325 135.923 116.481 135.821C116.638 135.718 116.801 135.586 116.972 135.425C117.143 135.259 117.324 135.057 117.514 134.817V132.181ZM126.589 133.235C126.589 133.426 126.54 133.562 126.442 133.646C126.35 133.724 126.242 133.763 126.12 133.763H121.799C121.799 134.129 121.835 134.458 121.909 134.751C121.982 135.044 122.104 135.296 122.275 135.506C122.446 135.716 122.668 135.877 122.941 135.989C123.215 136.102 123.549 136.158 123.945 136.158C124.257 136.158 124.536 136.133 124.78 136.084C125.024 136.031 125.234 135.972 125.41 135.909C125.59 135.845 125.737 135.789 125.849 135.74C125.966 135.687 126.054 135.66 126.113 135.66C126.147 135.66 126.176 135.669 126.201 135.689C126.23 135.704 126.252 135.728 126.267 135.762C126.281 135.796 126.291 135.845 126.296 135.909C126.306 135.967 126.311 136.041 126.311 136.128C126.311 136.192 126.308 136.248 126.303 136.297C126.298 136.341 126.291 136.382 126.281 136.421C126.276 136.456 126.264 136.487 126.245 136.517C126.23 136.546 126.208 136.575 126.179 136.604C126.154 136.629 126.076 136.673 125.944 136.736C125.812 136.795 125.642 136.854 125.432 136.912C125.222 136.971 124.978 137.022 124.699 137.066C124.426 137.115 124.133 137.139 123.82 137.139C123.278 137.139 122.802 137.063 122.392 136.912C121.987 136.761 121.645 136.536 121.367 136.238C121.088 135.94 120.878 135.567 120.737 135.118C120.595 134.668 120.524 134.146 120.524 133.55C120.524 132.984 120.598 132.476 120.744 132.027C120.891 131.573 121.101 131.189 121.374 130.877C121.652 130.56 121.987 130.318 122.377 130.152C122.768 129.981 123.205 129.896 123.688 129.896C124.206 129.896 124.646 129.979 125.007 130.145C125.373 130.311 125.673 130.535 125.908 130.818C126.142 131.097 126.313 131.426 126.42 131.807C126.533 132.183 126.589 132.586 126.589 133.016V133.235ZM125.373 132.876C125.388 132.242 125.246 131.744 124.948 131.382C124.655 131.021 124.218 130.84 123.637 130.84C123.339 130.84 123.078 130.896 122.854 131.009C122.629 131.121 122.441 131.27 122.29 131.456C122.138 131.641 122.021 131.858 121.938 132.107C121.855 132.352 121.809 132.608 121.799 132.876H125.373ZM138.212 136.817C138.212 136.856 138.203 136.89 138.183 136.919C138.164 136.944 138.132 136.966 138.088 136.985C138.044 137.005 137.983 137.02 137.905 137.029C137.827 137.039 137.729 137.044 137.612 137.044C137.49 137.044 137.39 137.039 137.312 137.029C137.233 137.02 137.17 137.005 137.121 136.985C137.077 136.966 137.045 136.944 137.026 136.919C137.006 136.89 136.997 136.856 136.997 136.817V132.811C136.997 132.532 136.972 132.278 136.923 132.049C136.875 131.819 136.796 131.622 136.689 131.456C136.582 131.29 136.445 131.163 136.279 131.075C136.113 130.987 135.917 130.943 135.693 130.943C135.415 130.943 135.134 131.05 134.851 131.265C134.572 131.48 134.265 131.795 133.928 132.21V136.817C133.928 136.856 133.918 136.89 133.898 136.919C133.879 136.944 133.845 136.966 133.796 136.985C133.752 137.005 133.691 137.02 133.613 137.029C133.535 137.039 133.437 137.044 133.32 137.044C133.208 137.044 133.11 137.039 133.027 137.029C132.949 137.02 132.885 137.005 132.836 136.985C132.792 136.966 132.761 136.944 132.741 136.919C132.727 136.89 132.719 136.856 132.719 136.817V132.811C132.719 132.532 132.692 132.278 132.639 132.049C132.585 131.819 132.504 131.622 132.397 131.456C132.29 131.29 132.153 131.163 131.987 131.075C131.826 130.987 131.633 130.943 131.408 130.943C131.13 130.943 130.849 131.05 130.566 131.265C130.283 131.48 129.975 131.795 129.643 132.21V136.817C129.643 136.856 129.633 136.89 129.614 136.919C129.594 136.944 129.562 136.966 129.519 136.985C129.475 137.005 129.414 137.02 129.335 137.029C129.257 137.039 129.157 137.044 129.035 137.044C128.918 137.044 128.82 137.039 128.742 137.029C128.664 137.02 128.601 137.005 128.552 136.985C128.508 136.966 128.476 136.944 128.457 136.919C128.442 136.89 128.435 136.856 128.435 136.817V130.225C128.435 130.186 128.442 130.154 128.457 130.13C128.471 130.101 128.5 130.076 128.544 130.057C128.588 130.032 128.645 130.018 128.713 130.013C128.781 130.003 128.872 129.998 128.984 129.998C129.091 129.998 129.179 130.003 129.248 130.013C129.321 130.018 129.377 130.032 129.416 130.057C129.455 130.076 129.482 130.101 129.497 130.13C129.516 130.154 129.526 130.186 129.526 130.225V131.097C129.897 130.682 130.256 130.379 130.603 130.188C130.954 129.993 131.308 129.896 131.665 129.896C131.938 129.896 132.182 129.927 132.397 129.991C132.617 130.054 132.81 130.145 132.976 130.262C133.142 130.374 133.283 130.511 133.4 130.672C133.518 130.828 133.615 131.004 133.693 131.199C133.913 130.96 134.121 130.757 134.316 130.591C134.516 130.425 134.707 130.291 134.887 130.188C135.073 130.086 135.251 130.013 135.422 129.969C135.598 129.92 135.773 129.896 135.949 129.896C136.374 129.896 136.73 129.971 137.019 130.123C137.307 130.269 137.539 130.467 137.714 130.716C137.895 130.965 138.022 131.258 138.095 131.595C138.173 131.927 138.212 132.278 138.212 132.649V136.817ZM146.093 136.817C146.093 136.856 146.083 136.89 146.064 136.919C146.044 136.944 146.013 136.966 145.969 136.985C145.925 137.005 145.864 137.02 145.786 137.029C145.708 137.039 145.61 137.044 145.493 137.044C145.371 137.044 145.271 137.039 145.192 137.029C145.114 137.02 145.053 137.005 145.009 136.985C144.965 136.966 144.934 136.944 144.914 136.919C144.895 136.89 144.885 136.856 144.885 136.817V132.957C144.885 132.581 144.855 132.278 144.797 132.049C144.738 131.819 144.653 131.622 144.541 131.456C144.428 131.29 144.282 131.163 144.101 131.075C143.925 130.987 143.72 130.943 143.486 130.943C143.183 130.943 142.88 131.05 142.578 131.265C142.275 131.48 141.958 131.795 141.625 132.21V136.817C141.625 136.856 141.616 136.89 141.596 136.919C141.577 136.944 141.545 136.966 141.501 136.985C141.457 137.005 141.396 137.02 141.318 137.029C141.24 137.039 141.14 137.044 141.018 137.044C140.9 137.044 140.803 137.039 140.725 137.029C140.646 137.02 140.583 137.005 140.534 136.985C140.49 136.966 140.458 136.944 140.439 136.919C140.424 136.89 140.417 136.856 140.417 136.817V130.225C140.417 130.186 140.424 130.154 140.439 130.13C140.454 130.101 140.483 130.076 140.527 130.057C140.571 130.032 140.627 130.018 140.695 130.013C140.764 130.003 140.854 129.998 140.966 129.998C141.074 129.998 141.162 130.003 141.23 130.013C141.303 130.018 141.359 130.032 141.398 130.057C141.438 130.076 141.464 130.101 141.479 130.13C141.499 130.154 141.508 130.186 141.508 130.225V131.097C141.879 130.682 142.248 130.379 142.614 130.188C142.985 129.993 143.359 129.896 143.735 129.896C144.174 129.896 144.543 129.971 144.841 130.123C145.144 130.269 145.388 130.467 145.573 130.716C145.759 130.965 145.891 131.258 145.969 131.595C146.052 131.927 146.093 132.327 146.093 132.796V136.817ZM149.506 136.817C149.506 136.856 149.497 136.89 149.477 136.919C149.458 136.944 149.426 136.966 149.382 136.985C149.338 137.005 149.277 137.02 149.199 137.029C149.121 137.039 149.021 137.044 148.898 137.044C148.781 137.044 148.684 137.039 148.605 137.029C148.527 137.02 148.464 137.005 148.415 136.985C148.371 136.966 148.339 136.944 148.32 136.919C148.305 136.89 148.298 136.856 148.298 136.817V130.225C148.298 130.191 148.305 130.159 148.32 130.13C148.339 130.101 148.371 130.076 148.415 130.057C148.464 130.037 148.527 130.022 148.605 130.013C148.684 130.003 148.781 129.998 148.898 129.998C149.021 129.998 149.121 130.003 149.199 130.013C149.277 130.022 149.338 130.037 149.382 130.057C149.426 130.076 149.458 130.101 149.477 130.13C149.497 130.159 149.506 130.191 149.506 130.225V136.817ZM149.646 127.999C149.646 128.282 149.592 128.475 149.484 128.577C149.377 128.68 149.179 128.731 148.891 128.731C148.608 128.731 148.413 128.682 148.305 128.584C148.203 128.482 148.151 128.292 148.151 128.013C148.151 127.73 148.205 127.537 148.312 127.435C148.42 127.332 148.618 127.281 148.906 127.281C149.189 127.281 149.382 127.332 149.484 127.435C149.592 127.532 149.646 127.72 149.646 127.999ZM155.168 136.333C155.168 136.475 155.158 136.587 155.139 136.67C155.119 136.753 155.09 136.814 155.051 136.854C155.012 136.893 154.953 136.929 154.875 136.963C154.797 136.998 154.707 137.024 154.604 137.044C154.506 137.068 154.401 137.088 154.289 137.103C154.177 137.117 154.064 137.125 153.952 137.125C153.61 137.125 153.317 137.081 153.073 136.993C152.829 136.9 152.629 136.763 152.473 136.583C152.316 136.397 152.202 136.165 152.128 135.887C152.06 135.604 152.026 135.271 152.026 134.891V131.038H151.103C151.03 131.038 150.971 130.999 150.927 130.921C150.883 130.843 150.861 130.716 150.861 130.54C150.861 130.447 150.866 130.369 150.876 130.306C150.891 130.242 150.908 130.191 150.927 130.152C150.947 130.108 150.971 130.079 151 130.064C151.035 130.044 151.071 130.035 151.11 130.035H152.026V128.467C152.026 128.433 152.033 128.401 152.048 128.372C152.067 128.343 152.099 128.318 152.143 128.299C152.192 128.274 152.255 128.257 152.333 128.248C152.412 128.238 152.509 128.233 152.626 128.233C152.749 128.233 152.849 128.238 152.927 128.248C153.005 128.257 153.066 128.274 153.11 128.299C153.154 128.318 153.186 128.343 153.205 128.372C153.225 128.401 153.234 128.433 153.234 128.467V130.035H154.926C154.965 130.035 155 130.044 155.029 130.064C155.058 130.079 155.083 130.108 155.102 130.152C155.126 130.191 155.144 130.242 155.153 130.306C155.163 130.369 155.168 130.447 155.168 130.54C155.168 130.716 155.146 130.843 155.102 130.921C155.058 130.999 155 131.038 154.926 131.038H153.234V134.715C153.234 135.169 153.3 135.513 153.432 135.748C153.569 135.977 153.811 136.092 154.157 136.092C154.27 136.092 154.37 136.082 154.458 136.062C154.545 136.038 154.624 136.014 154.692 135.989C154.76 135.965 154.819 135.943 154.868 135.923C154.917 135.899 154.96 135.887 155 135.887C155.024 135.887 155.046 135.894 155.065 135.909C155.09 135.918 155.107 135.94 155.117 135.975C155.131 136.009 155.144 136.055 155.153 136.114C155.163 136.172 155.168 136.246 155.168 136.333ZM159.768 137L158.889 139.424C158.859 139.502 158.784 139.561 158.662 139.6C158.544 139.644 158.364 139.666 158.12 139.666C157.993 139.666 157.89 139.659 157.812 139.644C157.734 139.634 157.673 139.615 157.629 139.585C157.59 139.556 157.568 139.517 157.563 139.468C157.558 139.419 157.57 139.361 157.6 139.292L158.508 137C158.464 136.98 158.422 136.949 158.383 136.905C158.344 136.861 158.317 136.814 158.303 136.766L155.952 130.467C155.913 130.364 155.893 130.284 155.893 130.225C155.893 130.167 155.913 130.12 155.952 130.086C155.991 130.052 156.054 130.03 156.142 130.02C156.23 130.005 156.347 129.998 156.494 129.998C156.64 129.998 156.755 130.003 156.838 130.013C156.921 130.018 156.987 130.03 157.036 130.049C157.084 130.069 157.119 130.098 157.138 130.137C157.163 130.171 157.187 130.22 157.211 130.284L159.094 135.572H159.116L160.932 130.254C160.961 130.162 160.996 130.103 161.035 130.079C161.079 130.049 161.142 130.03 161.225 130.02C161.308 130.005 161.428 129.998 161.584 129.998C161.721 129.998 161.833 130.005 161.921 130.02C162.009 130.03 162.072 130.052 162.111 130.086C162.155 130.12 162.177 130.167 162.177 130.225C162.177 130.284 162.163 130.357 162.133 130.445L159.768 137ZM173.427 135.66C173.427 135.738 173.425 135.806 173.42 135.865C173.415 135.923 173.405 135.975 173.391 136.019C173.381 136.062 173.366 136.102 173.347 136.136C173.327 136.17 173.293 136.211 173.244 136.26C173.195 136.309 173.093 136.385 172.937 136.487C172.78 136.585 172.585 136.683 172.351 136.78C172.121 136.873 171.855 136.951 171.552 137.015C171.254 137.083 170.927 137.117 170.571 137.117C169.956 137.117 169.399 137.015 168.901 136.81C168.408 136.604 167.985 136.302 167.634 135.901C167.287 135.501 167.019 135.008 166.828 134.422C166.643 133.831 166.55 133.152 166.55 132.386C166.55 131.6 166.65 130.899 166.85 130.284C167.055 129.668 167.341 129.148 167.707 128.724C168.073 128.294 168.51 127.967 169.018 127.742C169.531 127.518 170.097 127.405 170.717 127.405C170.991 127.405 171.257 127.432 171.516 127.486C171.774 127.535 172.014 127.598 172.233 127.676C172.453 127.754 172.648 127.845 172.819 127.947C172.99 128.05 173.107 128.135 173.171 128.204C173.239 128.267 173.283 128.316 173.303 128.35C173.322 128.384 173.337 128.426 173.347 128.475C173.361 128.519 173.371 128.572 173.376 128.636C173.386 128.699 173.391 128.775 173.391 128.863C173.391 128.96 173.386 129.043 173.376 129.112C173.366 129.18 173.352 129.239 173.332 129.288C173.312 129.332 173.288 129.366 173.259 129.39C173.234 129.41 173.203 129.419 173.164 129.419C173.095 129.419 173 129.373 172.878 129.28C172.756 129.183 172.597 129.078 172.402 128.965C172.211 128.848 171.977 128.743 171.699 128.65C171.425 128.553 171.096 128.504 170.71 128.504C170.29 128.504 169.907 128.589 169.56 128.76C169.218 128.926 168.925 129.173 168.681 129.5C168.437 129.827 168.247 130.228 168.11 130.701C167.978 131.17 167.912 131.707 167.912 132.312C167.912 132.913 167.976 133.445 168.103 133.909C168.234 134.368 168.42 134.754 168.659 135.066C168.903 135.374 169.201 135.608 169.553 135.77C169.904 135.926 170.302 136.004 170.747 136.004C171.123 136.004 171.45 135.958 171.728 135.865C172.011 135.772 172.25 135.669 172.446 135.557C172.646 135.44 172.81 135.335 172.937 135.242C173.063 135.149 173.164 135.103 173.237 135.103C173.271 135.103 173.3 135.11 173.325 135.125C173.349 135.14 173.369 135.169 173.383 135.213C173.398 135.252 173.408 135.308 173.413 135.381C173.422 135.455 173.427 135.547 173.427 135.66ZM176.167 136.817C176.167 136.856 176.157 136.89 176.137 136.919C176.118 136.944 176.086 136.966 176.042 136.985C175.998 137.005 175.937 137.02 175.859 137.029C175.781 137.039 175.681 137.044 175.559 137.044C175.441 137.044 175.344 137.039 175.266 137.029C175.188 137.02 175.124 137.005 175.075 136.985C175.031 136.966 175 136.944 174.98 136.919C174.965 136.89 174.958 136.856 174.958 136.817V127.032C174.958 126.993 174.965 126.958 174.98 126.929C175 126.9 175.031 126.875 175.075 126.856C175.124 126.836 175.188 126.822 175.266 126.812C175.344 126.802 175.441 126.797 175.559 126.797C175.681 126.797 175.781 126.802 175.859 126.812C175.937 126.822 175.998 126.836 176.042 126.856C176.086 126.875 176.118 126.9 176.137 126.929C176.157 126.958 176.167 126.993 176.167 127.032V136.817ZM183.366 136.824C183.366 136.883 183.347 136.927 183.308 136.956C183.269 136.985 183.215 137.007 183.146 137.022C183.078 137.037 182.978 137.044 182.846 137.044C182.719 137.044 182.617 137.037 182.539 137.022C182.465 137.007 182.412 136.985 182.377 136.956C182.343 136.927 182.326 136.883 182.326 136.824V136.165C182.038 136.473 181.716 136.712 181.359 136.883C181.008 137.054 180.634 137.139 180.239 137.139C179.892 137.139 179.577 137.093 179.294 137C179.016 136.912 178.776 136.783 178.576 136.612C178.381 136.441 178.227 136.231 178.115 135.982C178.007 135.733 177.954 135.45 177.954 135.132C177.954 134.761 178.029 134.439 178.181 134.166C178.332 133.892 178.549 133.665 178.833 133.484C179.116 133.304 179.462 133.169 179.873 133.082C180.283 132.989 180.744 132.942 181.257 132.942H182.165V132.43C182.165 132.176 182.138 131.951 182.084 131.756C182.031 131.561 181.943 131.399 181.821 131.272C181.704 131.141 181.55 131.043 181.359 130.979C181.169 130.911 180.935 130.877 180.656 130.877C180.358 130.877 180.09 130.914 179.851 130.987C179.616 131.055 179.409 131.133 179.228 131.221C179.052 131.304 178.903 131.382 178.781 131.456C178.664 131.524 178.576 131.558 178.518 131.558C178.479 131.558 178.444 131.548 178.415 131.529C178.386 131.509 178.359 131.48 178.334 131.441C178.315 131.402 178.3 131.353 178.291 131.294C178.281 131.231 178.276 131.163 178.276 131.089C178.276 130.967 178.283 130.872 178.298 130.804C178.317 130.73 178.359 130.662 178.422 130.599C178.491 130.535 178.605 130.462 178.767 130.379C178.928 130.291 179.113 130.213 179.323 130.145C179.533 130.071 179.763 130.013 180.012 129.969C180.261 129.92 180.512 129.896 180.766 129.896C181.24 129.896 181.643 129.949 181.975 130.057C182.307 130.164 182.575 130.323 182.78 130.533C182.985 130.738 183.134 130.994 183.227 131.302C183.32 131.609 183.366 131.968 183.366 132.378V136.824ZM182.165 133.814H181.132C180.8 133.814 180.512 133.843 180.268 133.902C180.024 133.956 179.821 134.039 179.66 134.151C179.499 134.258 179.379 134.39 179.301 134.546C179.228 134.698 179.191 134.874 179.191 135.074C179.191 135.416 179.299 135.689 179.514 135.894C179.733 136.094 180.039 136.194 180.429 136.194C180.747 136.194 181.04 136.114 181.308 135.953C181.582 135.792 181.867 135.545 182.165 135.213V133.814ZM191.24 136.817C191.24 136.856 191.23 136.89 191.21 136.919C191.196 136.944 191.167 136.966 191.123 136.985C191.079 137.005 191.02 137.02 190.947 137.029C190.878 137.039 190.793 137.044 190.69 137.044C190.578 137.044 190.485 137.039 190.412 137.029C190.344 137.02 190.288 137.005 190.244 136.985C190.205 136.966 190.178 136.944 190.163 136.919C190.148 136.89 190.141 136.856 190.141 136.817V135.945C189.765 136.36 189.394 136.663 189.028 136.854C188.662 137.044 188.291 137.139 187.915 137.139C187.475 137.139 187.104 137.066 186.801 136.919C186.503 136.773 186.262 136.575 186.076 136.326C185.891 136.072 185.756 135.779 185.673 135.447C185.595 135.11 185.556 134.703 185.556 134.224V130.225C185.556 130.186 185.563 130.154 185.578 130.13C185.598 130.101 185.632 130.076 185.681 130.057C185.729 130.032 185.793 130.018 185.871 130.013C185.949 130.003 186.047 129.998 186.164 129.998C186.281 129.998 186.379 130.003 186.457 130.013C186.535 130.018 186.596 130.032 186.64 130.057C186.689 130.076 186.723 130.101 186.743 130.13C186.762 130.154 186.772 130.186 186.772 130.225V134.063C186.772 134.449 186.799 134.759 186.853 134.993C186.911 135.223 186.997 135.42 187.109 135.586C187.226 135.748 187.373 135.875 187.548 135.967C187.724 136.055 187.929 136.099 188.164 136.099C188.466 136.099 188.767 135.992 189.064 135.777C189.367 135.562 189.687 135.247 190.024 134.832V130.225C190.024 130.186 190.031 130.154 190.046 130.13C190.065 130.101 190.1 130.076 190.148 130.057C190.197 130.032 190.258 130.018 190.332 130.013C190.41 130.003 190.51 129.998 190.632 129.998C190.749 129.998 190.847 130.003 190.925 130.013C191.003 130.018 191.064 130.032 191.108 130.057C191.152 130.076 191.184 130.101 191.203 130.13C191.228 130.154 191.24 130.186 191.24 130.225V136.817ZM197.612 135.022C197.612 135.359 197.548 135.66 197.421 135.923C197.299 136.187 197.124 136.409 196.894 136.59C196.665 136.771 196.391 136.907 196.074 137C195.756 137.093 195.407 137.139 195.026 137.139C194.792 137.139 194.567 137.12 194.353 137.081C194.143 137.046 193.952 137.002 193.781 136.949C193.615 136.89 193.474 136.832 193.356 136.773C193.239 136.709 193.154 136.653 193.1 136.604C193.046 136.556 193.007 136.487 192.983 136.399C192.958 136.312 192.946 136.192 192.946 136.041C192.946 135.948 192.951 135.87 192.961 135.806C192.971 135.743 192.983 135.691 192.998 135.652C193.012 135.613 193.032 135.586 193.056 135.572C193.085 135.552 193.117 135.542 193.151 135.542C193.205 135.542 193.283 135.577 193.386 135.645C193.493 135.708 193.623 135.779 193.774 135.857C193.93 135.936 194.113 136.009 194.323 136.077C194.533 136.141 194.775 136.172 195.048 136.172C195.253 136.172 195.439 136.15 195.605 136.106C195.771 136.062 195.915 135.999 196.037 135.916C196.159 135.828 196.252 135.718 196.315 135.586C196.384 135.455 196.418 135.298 196.418 135.118C196.418 134.932 196.369 134.776 196.271 134.649C196.179 134.522 196.054 134.41 195.898 134.312C195.742 134.214 195.566 134.129 195.371 134.056C195.175 133.978 194.973 133.897 194.763 133.814C194.558 133.731 194.355 133.638 194.155 133.536C193.959 133.428 193.784 133.299 193.627 133.147C193.471 132.996 193.344 132.815 193.247 132.605C193.154 132.396 193.107 132.144 193.107 131.851C193.107 131.592 193.156 131.346 193.254 131.111C193.356 130.872 193.508 130.665 193.708 130.489C193.908 130.308 194.157 130.164 194.455 130.057C194.758 129.949 195.109 129.896 195.51 129.896C195.686 129.896 195.861 129.91 196.037 129.939C196.213 129.969 196.372 130.005 196.513 130.049C196.655 130.093 196.774 130.142 196.872 130.196C196.975 130.245 197.05 130.289 197.099 130.328C197.153 130.367 197.187 130.401 197.202 130.43C197.221 130.459 197.233 130.494 197.238 130.533C197.248 130.567 197.255 130.611 197.26 130.665C197.27 130.718 197.275 130.784 197.275 130.862C197.275 130.945 197.27 131.019 197.26 131.082C197.255 131.141 197.243 131.189 197.224 131.229C197.209 131.268 197.189 131.297 197.165 131.316C197.141 131.331 197.114 131.338 197.084 131.338C197.041 131.338 196.977 131.312 196.894 131.258C196.811 131.204 196.704 131.148 196.572 131.089C196.44 131.026 196.284 130.967 196.103 130.914C195.927 130.86 195.725 130.833 195.495 130.833C195.29 130.833 195.109 130.857 194.953 130.906C194.797 130.95 194.667 131.016 194.565 131.104C194.467 131.187 194.392 131.287 194.338 131.404C194.289 131.521 194.265 131.648 194.265 131.785C194.265 131.976 194.313 132.137 194.411 132.269C194.509 132.396 194.636 132.508 194.792 132.605C194.948 132.703 195.126 132.791 195.327 132.869C195.527 132.947 195.729 133.028 195.935 133.111C196.145 133.194 196.35 133.287 196.55 133.389C196.755 133.492 196.936 133.616 197.092 133.763C197.248 133.909 197.373 134.085 197.465 134.29C197.563 134.495 197.612 134.739 197.612 135.022ZM204.973 133.235C204.973 133.426 204.924 133.562 204.826 133.646C204.733 133.724 204.626 133.763 204.504 133.763H200.183C200.183 134.129 200.219 134.458 200.292 134.751C200.366 135.044 200.488 135.296 200.659 135.506C200.83 135.716 201.052 135.877 201.325 135.989C201.599 136.102 201.933 136.158 202.329 136.158C202.641 136.158 202.919 136.133 203.164 136.084C203.408 136.031 203.618 135.972 203.793 135.909C203.974 135.845 204.121 135.789 204.233 135.74C204.35 135.687 204.438 135.66 204.497 135.66C204.531 135.66 204.56 135.669 204.584 135.689C204.614 135.704 204.636 135.728 204.65 135.762C204.665 135.796 204.675 135.845 204.68 135.909C204.689 135.967 204.694 136.041 204.694 136.128C204.694 136.192 204.692 136.248 204.687 136.297C204.682 136.341 204.675 136.382 204.665 136.421C204.66 136.456 204.648 136.487 204.628 136.517C204.614 136.546 204.592 136.575 204.562 136.604C204.538 136.629 204.46 136.673 204.328 136.736C204.196 136.795 204.025 136.854 203.815 136.912C203.605 136.971 203.361 137.022 203.083 137.066C202.81 137.115 202.517 137.139 202.204 137.139C201.662 137.139 201.186 137.063 200.776 136.912C200.371 136.761 200.029 136.536 199.75 136.238C199.472 135.94 199.262 135.567 199.121 135.118C198.979 134.668 198.908 134.146 198.908 133.55C198.908 132.984 198.981 132.476 199.128 132.027C199.274 131.573 199.484 131.189 199.758 130.877C200.036 130.56 200.371 130.318 200.761 130.152C201.152 129.981 201.589 129.896 202.072 129.896C202.59 129.896 203.029 129.979 203.391 130.145C203.757 130.311 204.057 130.535 204.292 130.818C204.526 131.097 204.697 131.426 204.804 131.807C204.917 132.183 204.973 132.586 204.973 133.016V133.235ZM203.757 132.876C203.771 132.242 203.63 131.744 203.332 131.382C203.039 131.021 202.602 130.84 202.021 130.84C201.723 130.84 201.462 130.896 201.237 131.009C201.013 131.121 200.825 131.27 200.673 131.456C200.522 131.641 200.405 131.858 200.322 132.107C200.239 132.352 200.192 132.608 200.183 132.876H203.757Z" fill="#8692A6"/>
</svg>
