<svg width="127" height="135" viewBox="0 0 127 135" fill="none" xmlns="http://www.w3.org/2000/svg">
<path d="M117.92 34.6533H115.992V8.46623C115.992 3.79378 112.19 0 107.525 0H103.794L103.384 0.0314531C75.051 4.71127 9.02021 24.4103 8.37174 24.6017C0.616211 26.8676 0.616211 32.5412 0.616211 35.9422V43.1202V116.384V126.536C0.616211 131.2 4.41735 135.001 9.08245 135.001H117.92C122.59 135.001 126.384 131.2 126.384 126.536V106.284V72.5261V43.1202C126.384 38.447 122.59 34.6533 117.92 34.6533ZM9.80587 29.4515C10.4624 29.25 75.8774 9.73105 104.002 5.05123H107.525C109.407 5.05123 110.942 6.58641 110.942 8.46623V34.6559H9.08245C7.86314 34.6559 6.7161 34.9263 5.67414 35.3887C5.68217 32.5198 5.92108 30.5844 9.80587 29.4515ZM121.333 101.242H88.1114C86.2315 101.242 84.6963 99.6996 84.6963 97.8198V80.9897C84.6963 79.1099 86.2315 77.5747 88.1114 77.5747H121.333V101.242ZM88.1114 72.5261C83.4483 72.5261 79.6471 76.3273 79.6471 80.9904V97.8204C79.6471 102.491 83.4483 106.285 88.1114 106.285H121.333V126.537C121.333 128.417 119.805 129.952 117.918 129.952H9.08245C7.19995 129.952 5.66744 128.417 5.66744 126.537V116.384V43.1202C5.66744 41.2377 7.20262 39.7052 9.08245 39.7052H117.92C119.807 39.7052 121.335 41.2377 121.335 43.1202V72.5261H88.1114Z" fill="#9FA2B4"/>
<path d="M93.3918 92.9934C95.442 92.9934 97.104 91.3314 97.104 89.2812C97.104 87.2311 95.442 85.5691 93.3918 85.5691C91.3417 85.5691 89.6797 87.2311 89.6797 89.2812C89.6797 91.3314 91.3417 92.9934 93.3918 92.9934Z" fill="#9FA2B4"/>
</svg>
