<svg width="108" height="124" viewBox="0 0 108 124" fill="none" xmlns="http://www.w3.org/2000/svg">
<path d="M69.7484 -0.00227647L61.5996 12.2217L73.8236 20.3705L81.9724 8.14654L69.7484 -0.00227647Z" fill="#528DC2"/>
<path d="M65.1767 103.513C65.9793 103.222 66.7251 102.773 67.3565 102.154C68.7337 100.801 69.3773 98.9295 69.1227 97.0143L65.676 71.1656V52.8012L80.7076 47.4333C82.5941 46.7588 83.9896 45.117 84.3481 43.1453L86.6336 30.5703L105.324 42.463L107.512 39.0246L87.2915 26.1585C87.2446 24.8404 86.7678 23.5632 85.9043 22.5285C84.7614 21.1595 83.083 20.3734 81.2987 20.3734C80.4673 20.3734 79.6833 20.5546 78.9619 20.8562L62.6957 10.5059L60.508 13.9447L75.9208 23.7514C75.6639 24.2829 75.4645 24.8496 75.3688 25.4606L73.4784 37.7461L61.5206 41.7938C59.2899 39.8177 56.4178 38.7074 53.4535 38.7074C50.8295 38.7074 48.3059 39.5587 46.0774 41.2293L45.4481 41.7507C45.2952 41.8833 41.9585 44.9145 39.1941 47.4259V40.9624C39.1941 37.8743 37.0021 35.1895 34.0952 34.7167C32.3047 34.4211 30.4934 34.9266 29.1267 36.0895C27.7556 37.2529 26.9716 38.9494 26.9716 40.7443V57.3525C26.9716 61.6731 30.4878 65.1893 34.8083 65.1893C36.7496 65.1893 38.6118 64.4744 40.0498 63.1768L41.2314 62.1155V71.1665L37.8052 96.8661C37.4141 99.7996 39.0929 102.564 41.7347 103.511C38.4853 104.428 35.322 105.715 32.3295 107.413L9.3125 120.456L11.3211 124L34.3381 110.957C46.1308 104.277 60.7818 104.275 72.5723 110.957L95.5893 124L97.598 120.456L74.581 107.413C71.5871 105.717 68.4238 104.43 65.1767 103.513ZM37.3233 60.1495C36.6327 60.7727 35.7383 61.1151 34.8075 61.1151C32.7337 61.1151 31.0449 59.4264 31.0449 57.3525V40.7443C31.0449 40.1454 31.3056 39.5792 31.7641 39.1919C32.2287 38.7987 32.8215 38.64 33.4407 38.7356C34.382 38.8903 35.1195 39.8682 35.1195 40.962V56.6333L38.5257 53.5369C38.5257 53.5369 47.774 45.1318 48.0838 44.8571L48.5953 44.4312C51.9485 41.9215 56.7011 42.4265 59.4715 45.4925L60.3676 46.4846L77.1267 40.8112L79.3922 26.079C79.3983 26.0442 79.4187 26.0177 79.4248 25.9834L82.9205 28.208L80.3374 42.4165C80.2374 42.9584 79.8546 43.4104 79.3352 43.596L61.6014 49.9317V71.3008L65.0828 97.5528C65.1663 98.1842 64.9546 98.8013 64.5 99.2477C64.2354 99.5106 63.6548 99.9343 62.7643 99.7935C61.923 99.6653 61.2203 98.8726 61.0921 97.907L57.2726 69.2635H49.6314L45.7893 98.0821C45.7119 98.6566 45.3921 99.1677 44.9071 99.4875C44.416 99.8135 43.8154 99.9013 43.2144 99.7383C42.304 99.4858 41.6986 98.4632 41.8394 97.4059L45.2843 71.5693L45.3047 52.9668L37.3233 60.1495ZM47.9569 102.226C48.9652 101.275 49.6435 100.016 49.8291 98.6223L53.1984 73.3381H53.7055L57.0544 98.4472C57.2539 99.9404 57.967 101.26 58.9874 102.232C55.3274 101.759 51.6178 101.757 47.9569 102.226Z" fill="#9FA2B4"/>
<path d="M65.6755 26.4847C65.6755 19.744 60.1937 14.2622 53.453 14.2622C46.7122 14.2622 41.2305 19.744 41.2305 26.4847C41.2305 33.2255 46.7122 38.7072 53.453 38.7072C60.1937 38.7072 65.6755 33.2255 65.6755 26.4847ZM53.453 34.6331C48.959 34.6331 45.3046 30.9787 45.3046 26.4847C45.3046 21.9907 48.959 18.3364 53.453 18.3364C57.947 18.3364 61.6013 21.9907 61.6013 26.4847C61.6013 30.9787 57.947 34.6331 53.453 34.6331Z" fill="#9FA2B4"/>
<path d="M102.343 55.0039H98.269V59.0781H94.1948V63.1522H98.269V67.2264H102.343V63.1522H106.417V59.0781H102.343V55.0039Z" fill="#9FA2B4"/>
<path d="M86.0466 75.3749V73.3376H88.0839V69.2634H86.0466V67.2266H81.9724V69.2634H79.9355V73.3376H81.9724V75.3749H86.0466Z" fill="#9FA2B4"/>
<path d="M98.2689 73.3374H94.1948V77.4116H90.1206V81.4857H94.1948V85.5599H98.2689V81.4857H102.343V77.4116H98.2689V73.3374Z" fill="#9FA2B4"/>
<path d="M22.8969 18.3363H26.9711V14.2621H31.0453V10.1879H26.9711V6.11377H22.8969V10.1879H18.8228V14.2621H22.8969V18.3363Z" fill="#9FA2B4"/>
<path d="M6.59981 12.225V10.1881H8.63712V6.11396H6.59981V4.07666H2.52564V6.11396H0.48877V10.1881H2.52564V12.225H6.59981Z" fill="#9FA2B4"/>
<path d="M12.7113 30.5589V26.4848H16.7855V22.4106H12.7113V18.3364H8.63716V22.4106H4.56299V26.4848H8.63716V30.5589H12.7113Z" fill="#9FA2B4"/>
</svg>
