<svg width="34" height="34" viewBox="0 0 34 34" fill="none" xmlns="http://www.w3.org/2000/svg">
<path opacity="0.6" d="M32.5834 5.66664H28.3334V1.41664C28.3334 0.634645 27.7001 0 26.9166 0H1.41664C0.63325 0 0 0.634645 0 1.41664V29.75C0 30.532 0.63325 31.1666 1.41664 31.1666H5.66664V32.5833C5.66664 33.3653 6.29989 33.9999 7.08329 33.9999H32.5833C33.3667 33.9999 33.9999 33.3653 33.9999 32.5833V7.08329C34 6.30136 33.3667 5.66664 32.5834 5.66664ZM5.66664 7.08336V28.3334H2.83336V2.83336H25.5V5.66671H7.08336C6.29989 5.66664 5.66664 6.30136 5.66664 7.08336ZM26.9166 21.25H21.25V26.9166C21.25 27.6986 20.6167 28.3333 19.8334 28.3333C19.05 28.3333 18.4167 27.6986 18.4167 26.9166V21.25H12.75C11.9666 21.25 11.3334 20.6154 11.3334 19.8334C11.3334 19.0514 11.9666 18.4167 12.75 18.4167H18.4166V12.75C18.4166 11.968 19.0499 11.3334 19.8333 11.3334C20.6167 11.3334 21.2499 11.968 21.2499 12.75V18.4166H26.9166C27.7 18.4166 28.3332 19.0513 28.3332 19.8333C28.3332 20.6153 27.7001 21.25 26.9166 21.25Z" fill="#D8D8D8"/>
</svg>
