<svg width="23" height="33" viewBox="0 0 23 33" fill="none" xmlns="http://www.w3.org/2000/svg">
<path d="M6.6444 6.53776V5.11991C6.6444 4.86372 6.85287 4.65539 7.10892 4.65539H15.8455C16.1017 4.65539 16.31 4.86386 16.31 5.11991V6.53776C16.31 6.79396 16.1015 7.00228 15.8455 7.00228H7.10907C6.85287 7.00243 6.6444 6.79396 6.6444 6.53776ZM14.1576 2.47317C14.0459 1.09111 12.8877 0 11.4773 0C10.0668 0 8.90866 1.09111 8.79693 2.47317H14.1576ZM22.9545 8.05004V30.0661C22.9545 31.6838 21.6384 33 20.0206 33H2.93391C1.31616 33 0 31.6838 0 30.0661V8.05004C0 6.43229 1.31616 5.11612 2.93391 5.11612H4.46233C4.46233 5.11743 4.46219 5.11874 4.46219 5.11991V6.53776C4.46219 7.99723 5.6496 9.1845 7.10892 9.1845H15.8455C17.3049 9.1845 18.4922 7.99723 18.4922 6.53776V5.11991C18.4922 5.1186 18.4921 5.11729 18.4921 5.11612H20.0205C21.6384 5.11612 22.9545 6.43229 22.9545 8.05004ZM7.80621 20.8691C7.29324 20.553 6.62098 20.7124 6.30485 21.2254L5.2731 22.899L4.74049 22.4794C4.26739 22.1065 3.58101 22.1882 3.20829 22.6616C2.83542 23.1351 2.91704 23.821 3.39043 24.1939L4.88466 25.3707C5.07844 25.5233 5.3166 25.6045 5.55969 25.6045C5.62312 25.6045 5.68699 25.599 5.75042 25.5878C6.05666 25.5333 6.32536 25.3508 6.48859 25.086L8.16249 22.3704C8.47877 21.8575 8.31917 21.1854 7.80621 20.8691ZM7.80621 13.0131C7.29324 12.6968 6.62098 12.8566 6.30485 13.3694L5.2731 15.043L4.74049 14.6234C4.26739 14.2507 3.58101 14.3322 3.20829 14.8056C2.83542 15.2791 2.91704 15.9651 3.39043 16.3379L4.88466 17.5147C5.07844 17.6673 5.3166 17.7485 5.55969 17.7485C5.62312 17.7485 5.68699 17.743 5.75042 17.7318C6.05666 17.6774 6.32536 17.4948 6.48859 17.23L8.16249 14.5146C8.47877 14.0015 8.31917 13.3294 7.80621 13.0131ZM19.1064 24.5135C19.1064 23.9108 18.6181 23.4224 18.0153 23.4224H10.8868C10.2842 23.4224 9.79566 23.9108 9.79566 24.5135C9.79566 25.1162 10.2842 25.6046 10.8868 25.6046H18.0153C18.6181 25.6046 19.1064 25.1162 19.1064 24.5135ZM19.1064 16.6576C19.1064 16.0548 18.6181 15.5665 18.0153 15.5665H10.8868C10.2842 15.5665 9.79566 16.0548 9.79566 16.6576C9.79566 17.2603 10.2842 17.7487 10.8868 17.7487H18.0153C18.6181 17.7487 19.1064 17.2603 19.1064 16.6576Z" fill="white" fill-opacity="0.6"/>
</svg>
